<svg xmlns="http://www.w3.org/2000/svg" xmlns:xlink="http://www.w3.org/1999/xlink" width="245.214" height="179.677" viewBox="0 0 245.214 179.677">
  <defs>
    <linearGradient id="linear-gradient" y1="0.5" x2="1" y2="0.5" gradientUnits="objectBoundingBox">
      <stop offset="0" stop-color="#010101" stop-opacity="0"/>
      <stop offset="0.95" stop-color="#010101"/>
    </linearGradient>
    <linearGradient id="linear-gradient-2" x1="-0.766" y1="-0.686" x2="0.195" y2="-0.686" xlink:href="#linear-gradient"/>
    <linearGradient id="linear-gradient-3" x1="-1.124" y1="-1.176" x2="-0.166" y2="-5.815" xlink:href="#linear-gradient"/>
    <linearGradient id="linear-gradient-4" x1="-1.796" y1="-2.68" x2="1.465" y2="-0.024" xlink:href="#linear-gradient"/>
    <linearGradient id="linear-gradient-5" x1="0" y1="0.501" y2="0.501" xlink:href="#linear-gradient"/>
    <linearGradient id="linear-gradient-6" y1="0.5" x2="1" y2="0.5" gradientUnits="objectBoundingBox">
      <stop offset="0" stop-color="#fff" stop-opacity="0"/>
      <stop offset="0.95" stop-color="#fff"/>
    </linearGradient>
    <linearGradient id="linear-gradient-7" x1="0.472" y1="-0.016" x2="0.801" y2="3.066" xlink:href="#linear-gradient"/>
    <linearGradient id="linear-gradient-8" x1="0.317" y1="0.81" x2="1.414" y2="-1.432" xlink:href="#linear-gradient"/>
  </defs>
  <g id="creative_process" transform="translate(0.002 0)">
    <path id="Path_181" data-name="Path 181" d="M77.666,23.016c-7.833,3.534-15.354,8.159-20.9,14.71-7.672,9.067-11.088,21.217-19.137,29.95C27.338,78.84,10.42,83.421,2.95,96.626.1,101.672-1.038,107.5-1.528,113.265-3.4,135.21,5.1,159.2,24,170.514,31.5,175,40.15,177.288,47.745,181.631c6.745,3.856,12.615,9.312,19.865,12.1,12.791,4.918,27.273.608,39.511-5.555s23.769-14.233,37.1-17.423c17.211-4.094,35.153.476,52.825.681s38.061-6.324,43.993-22.982c1.86-5.225,2.054-10.872,2.226-16.416.322-10.385.59-21.114-3.3-30.759-5.277-13.223-17.764-22.817-22-36.42-2.234-7.181-2.073-15.222-6-21.638-5.163-8.448-15.881-11.608-25.746-12.45-15.665-1.351-32.458,1.153-46.3-6.32C120.026,13.7,98.359,13.674,77.666,23.016Z" transform="translate(1.78 -16.19)" fill="#24b8fe" opacity="0.24"/>
    <path id="Path_182" data-name="Path 182" d="M239.616,242.959a2.929,2.929,0,0,0-.062-.732h0l7.415-1.183L245,224.932l-9.693,1.512a32.955,32.955,0,0,0-7.031-8.613h-.018l4.976-7.346V206.3l-13.087-5.42-6.419,9.4a31.511,31.511,0,0,0-7.642-.915,2.142,2.142,0,0,0-.608.059l-2.907-10.18-15.746-.278v4.163l2.929,10.473a33.806,33.806,0,0,0-9.55,7.836l-8.254-5.361-9.316,9.122v4.171l10.528,6.87a34.544,34.544,0,0,0-.67,6.716,14.219,14.219,0,0,0,.124,2.329L161.7,243.824v4.163l3.3,15.878,12.63-3.069h0a33.344,33.344,0,0,0,4.841,6.13l-5.639,6.243v4.174l13.984,8.239,5.709-10.436h0a33.454,33.454,0,0,0,9.008,1.41h0l3.984,11.07,15.453-4.932v-4.167l-3.512-5.712h0a32.787,32.787,0,0,0,7.69-5.493l7.617,4.76,9.122-13.413v-4.164l-8.034-.908a32.5,32.5,0,0,0,1.769-10.638Zm-33.531,16.551a16.551,16.551,0,1,1,16.478-16.551,16.551,16.551,0,0,1-16.478,16.551Z" transform="translate(-101.838 -132.039)" fill="url(#linear-gradient)"/>
    <path id="Path_183" data-name="Path 183" d="M239.616,232.081a2.929,2.929,0,0,0-.062-.732h0l7.415-1.183L245,214.054l-9.693,1.512a33.015,33.015,0,0,0-7.031-8.616h-.018l4.976-7.364L220.146,190l-6.419,9.4a31.693,31.693,0,0,0-7.642-.915,2.022,2.022,0,0,0-.608.062l-2.907-10.18-15.746,3.882,2.929,10.473a33.754,33.754,0,0,0-9.535,7.847l-8.268-5.361-9.316,13.281,10.528,6.87a34.553,34.553,0,0,0-.67,6.719,14.219,14.219,0,0,0,.124,2.329l-10.916,2.7,3.3,15.881,12.63-3.072h0a33.22,33.22,0,0,0,4.841,6.13l-5.639,10.407,13.966,8.246,5.709-10.436h0a33.455,33.455,0,0,0,9.008,1.41h0l3.984,11.066,15.453-4.932-3.512-9.887h0a32.667,32.667,0,0,0,7.69-5.493l7.617,4.76,9.1-13.424-8.034-5.072A32.458,32.458,0,0,0,239.616,232.081Zm-33.531,16.551a16.551,16.551,0,1,1,16.478-16.551A16.551,16.551,0,0,1,206.085,248.633Z" transform="translate(-101.838 -125.321)" fill="#24b8fe"/>
    <path id="Path_184" data-name="Path 184" d="M420.911,303.332a1.532,1.532,0,0,0,.106-.366h0l3.761.831,2.1-8.056-4.91-1.1a16.914,16.914,0,0,0-1.728-5.438h0L424,286.642l.784-1.988-5.225-5.083-4.837,3.3a16.325,16.325,0,0,0-3.475-1.879,1.047,1.047,0,0,0-.3-.084l.531-5.409-7.463-3.105-.787,1.988-.568,5.555a17.347,17.347,0,0,0-6.049,1.919l-2.929-4.112-6.167,2.6-.791,1.977,3.728,5.269a17.716,17.716,0,0,0-1.589,3.083,7.347,7.347,0,0,0-.366,1.132l-4.932-2.757-.784,1.985-1.417,8.206,6.591.915h0a17.134,17.134,0,0,0,1.157,3.841l-3.852,1.919-.784,1.985,5.127,6.591,4.694-3.9h0a17.136,17.136,0,0,0,4.028,2.373h0l-.19,6.035,8.309.56.784-1.985-.6-3.391h0A16.846,16.846,0,0,0,411.332,313l2.735,3.713,6.881-4.691.784-1.988-3.662-1.948a16.764,16.764,0,0,0,2.842-4.757ZM401.782,304.9a8.5,8.5,0,1,1,10.985-4.786,8.5,8.5,0,0,1-10.985,4.786Z" transform="translate(-241.062 -178.574)" fill="url(#linear-gradient-2)"/>
    <path id="Path_185" data-name="Path 185" d="M423.077,301.367a1.516,1.516,0,0,0,.11-.366h0l3.764.835,2.1-8.056-4.91-1.1a17.072,17.072,0,0,0-1.732-5.438h0l3.757-2.563-4.438-7.042-4.834,3.274a16.34,16.34,0,0,0-3.475-1.879,1.214,1.214,0,0,0-.3-.088l.535-5.4-8.25-1.121-.568,5.555a17.329,17.329,0,0,0-6.038,1.941l-2.929-4.12-6.957,4.581,3.724,5.269a18.059,18.059,0,0,0-1.586,3.08,7.516,7.516,0,0,0-.366,1.135l-5.72-.773-1.417,8.2,6.61.919h0a17.033,17.033,0,0,0,1.153,3.838l-4.665,3.878,5.127,6.573,4.694-3.907h0a17.209,17.209,0,0,0,4.028,2.376h0L400.3,317l8.309.564.187-5.376h0a17.013,17.013,0,0,0,4.709-1.168l2.721,3.72,6.877-4.691-2.878-3.933A16.648,16.648,0,0,0,423.077,301.367Zm-19.129,1.571a8.5,8.5,0,1,1,10.985-4.79A8.5,8.5,0,0,1,403.947,302.938Z" transform="translate(-242.444 -178.593)" fill="#24b8fe"/>
    <path id="Path_186" data-name="Path 186" d="M334.59,196.365a12.007,12.007,0,0,0-4.486-.146,1.307,1.307,0,0,0-.952.461.908.908,0,0,0,.048.959,2.277,2.277,0,0,0,.732.67,19.033,19.033,0,0,0,6.957,2.16.806.806,0,0,0,.406,0c.249-.092.341-.392.4-.655l.754-3.559a.572.572,0,0,0,0-.3.528.528,0,0,0-.161-.22c-.483-.45-1.754-1.186-2.428-.762S335.651,196.6,334.59,196.365Z" transform="translate(-207.899 -129.423)" fill="#24b8fe"/>
    <path id="Path_187" data-name="Path 187" d="M334.59,196.365a12.007,12.007,0,0,0-4.486-.146,1.307,1.307,0,0,0-.952.461.908.908,0,0,0,.048.959,2.277,2.277,0,0,0,.732.67,19.033,19.033,0,0,0,6.957,2.16.806.806,0,0,0,.406,0c.249-.092.341-.392.4-.655l.754-3.559a.572.572,0,0,0,0-.3.528.528,0,0,0-.161-.22c-.483-.45-1.754-1.186-2.428-.762S335.651,196.6,334.59,196.365Z" transform="translate(-207.899 -129.423)" fill="url(#linear-gradient-3)"/>
    <path id="Path_188" data-name="Path 188" d="M417.45,74.377s3.98,2.464,4.42,2.955-4.574,25.787-4.841,27.021-7.324-1.146-10.2-2.139-5.54-5.734-5.54-5.734,3.226-21.78,3.871-22.161A59.892,59.892,0,0,1,411.693,73Z" transform="translate(-253.694 -52.197)" fill="#24b8fe"/>
    <path id="Path_189" data-name="Path 189" d="M397.4,75.57a5.354,5.354,0,0,0-2.358.941c-.853.736-8.184,10.041-7.792,12.274s2.7,3.241,3.482,2.929,2.688-3.065,3.058-3.878S399.2,80.62,399.2,80.62Z" transform="translate(-244.788 -53.826)" fill="#24b8fe"/>
    <path id="Path_190" data-name="Path 190" d="M436.128,69.306a14.187,14.187,0,0,0-.623,3.717c.15,1.051-1.673,3.871-3.746,3.753s-1.882-3.662-1.857-4.061.655-.586.505-1.637S435.992,68.057,436.128,69.306Z" transform="translate(-271.819 -49.601)" fill="#f5e0cd"/>
    <path id="Path_191" data-name="Path 191" d="M430.59,71.086a1.615,1.615,0,0,1-.41,1.381,2.6,2.6,0,0,0,1.666.85,4.848,4.848,0,0,0,4.109-2.688l.051-.1c.157-.681.308-1.208.308-1.208C436.178,68.065,430.444,70.046,430.59,71.086Z" transform="translate(-272.005 -49.609)" fill="#efd2bb"/>
    <path id="Path_192" data-name="Path 192" d="M439.258,77.484s-1.9,3.827-3.343,4.16c0,0-.4.187.6.868s4.083-2.27,3.8-4.581a1.71,1.71,0,0,0-.963-1.381Z" transform="translate(-275.59 -54.447)" fill="#fff"/>
    <path id="Path_193" data-name="Path 193" d="M428.692,75.818a8.509,8.509,0,0,0,.432,4.907s-.538.714-.952.688-1.315-2.563-.795-4.416C427.682,75.905,428.5,75.5,428.692,75.818Z" transform="translate(-270.129 -53.916)" fill="#fff"/>
    <path id="Path_194" data-name="Path 194" d="M457.63,123" transform="translate(-289.403 -83.888)" fill="none" stroke="#000" stroke-miterlimit="10" stroke-width="1.43"/>
    <path id="Path_195" data-name="Path 195" d="M381.4,145.172l-1.538,16.372-2.014,25.091s-1.1.981-3.783.623l-1.011-26.731-2.494-12.337-13.585-2.029a2,2,0,0,0-2.508,1.1l-5.548,13.032s-2.179-1.014-3.515-1.509l4.588-18.148a2.988,2.988,0,0,1,3.713-2.142l13.025-1.073Z" transform="translate(-218.27 -93.028)" fill="#606161"/>
    <path id="Path_196" data-name="Path 196" d="M428.312,48.131s-.732,5.376-.384,6.855,1.512,2.79,2.757,2.86a4.853,4.853,0,0,0,4.109-2.688,19.884,19.884,0,0,0,1.432-7c-.172-.633-1.318-2.669-4.651-2.563A3.137,3.137,0,0,0,428.312,48.131Z" transform="translate(-270.518 -34.824)" fill="#f5e0cd"/>
    <path id="Path_197" data-name="Path 197" d="M429.285,41.054l-.414.9a.571.571,0,0,1-.681.4,8.375,8.375,0,0,1-.857-.029.538.538,0,0,1-.3-.084c-.216-.176-.275-.666-.4-.915a1.967,1.967,0,0,1-.344-1.062,1.359,1.359,0,0,1,.238-.59,2.479,2.479,0,0,1,.773-.732,2.608,2.608,0,0,0,.384-.242,2.534,2.534,0,0,0,.4-.538,2.633,2.633,0,0,1,3.629-.732c.344.223.71.549,1.1.447.143-.037.267-.125.406-.172a1.465,1.465,0,0,1,.685,0,4.12,4.12,0,0,1,1.6.52,11.6,11.6,0,0,1,1.5,1.684c.4.4.912.7,1.278,1.128a1.336,1.336,0,0,1,.234,1.567c-.282.4-.857.516-1.1.937-.117.2-.135.447-.249.652a2.5,2.5,0,0,1-.476.509,2.931,2.931,0,0,0-.432.751,8.257,8.257,0,0,1-.648.941c-.11.139-.253.293-.428.271s-.311-.3-.344-.52a17.983,17.983,0,0,1-.194-2.171,1.994,1.994,0,0,0-.088-.677,1.732,1.732,0,0,0-.641-.732,8.5,8.5,0,0,0-2.875-1.4c-.3-.081-.6-.143-.9-.223a1.073,1.073,0,0,0-.824,0" transform="translate(-269.54 -29.381)" fill="#606161"/>
    <path id="Path_198" data-name="Path 198" d="M448.535,60.664s.275-1.234,1.1-.773-.366,2.688-.784,2.871a1.216,1.216,0,0,1-.63.143" transform="translate(-283.439 -43.823)" fill="#f5e0cd"/>
    <path id="Path_199" data-name="Path 199" d="M372.942,116.623a1.1,1.1,0,0,0,.026.626.912.912,0,0,0,.392.388,3.361,3.361,0,0,0,3.691-.527,11.923,11.923,0,0,0,2.413-3.127c.626-.989,1.3-1.952,2.01-2.878.267-.366.557-.787.4-1.2a1.256,1.256,0,0,0-.319-.417c-2.344-2.3-1-5.639-3.05-3.113C376.893,108.347,373.333,114.114,372.942,116.623Z" transform="translate(-235.705 -72.78)" fill="#24b8fe"/>
    <path id="Path_200" data-name="Path 200" d="M364.053,133.53a2.318,2.318,0,0,0-.871,1.428,1.027,1.027,0,0,0,.948,1.168,2.175,2.175,0,0,0,.7-.245,6.969,6.969,0,0,1,2.259-.315,2.943,2.943,0,0,0,2.084-.806,1.728,1.728,0,0,0,.3-1.688C368.6,130.674,365.276,132.428,364.053,133.53Z" transform="translate(-229.537 -89.511)" fill="#f5e0cd"/>
    <path id="Path_201" data-name="Path 201" d="M418.944,274.5a16.092,16.092,0,0,0-1.443,1.86,4.759,4.759,0,0,0-.754,1.567,1.421,1.421,0,0,0,0,.773,1.212,1.212,0,0,0,.773.7,2.7,2.7,0,0,0,1.069.092,7.569,7.569,0,0,0,3.958-1.465,3,3,0,0,0,.985-1.1,2.728,2.728,0,0,0,.051-1.736c-.143-.571-.366-1.117-.546-1.684a17.67,17.67,0,0,1-.366-1.772.209.209,0,0,0-.22-.2c-.732-.1-1.97-.172-2.431.575a3.357,3.357,0,0,0-.308.974,3.069,3.069,0,0,1-.769,1.41Z" transform="translate(-263.457 -177.997)" fill="#24b8fe"/>
    <path id="Path_202" data-name="Path 202" d="M418.921,274.741a16.44,16.44,0,0,0-1.446,1.86,4.843,4.843,0,0,0-.754,1.567,1.465,1.465,0,0,0,0,.773,1.219,1.219,0,0,0,.773.7,2.7,2.7,0,0,0,1.069.092,7.569,7.569,0,0,0,3.958-1.465,2.93,2.93,0,0,0,.985-1.117,2.68,2.68,0,0,0,.051-1.736c-.143-.571-.384-1.1-.546-1.684s-.242-1.183-.366-1.772a.268.268,0,0,0-.059-.135.271.271,0,0,0-.161-.059c-.751-.106-1.97-.176-2.431.571a3.637,3.637,0,0,0-.308.974A3.094,3.094,0,0,1,418.921,274.741Z" transform="translate(-263.441 -178.138)" fill="url(#linear-gradient-4)"/>
    <path id="Path_203" data-name="Path 203" d="M455.968,78.223c1.538,1.831,2.087,2.647,3.537,4.552.092-4.229,1.128-7.408,1.219-11.637a.8.8,0,0,1,.212-.648.769.769,0,0,1,.505-.1,12.3,12.3,0,0,1,2.684.366.754.754,0,0,1,.443.231.783.783,0,0,1,.088.52q-.392,5.881-.776,11.762a30.577,30.577,0,0,1-.7,5.54,3.129,3.129,0,0,1-1.377,2.168c-1.029.505-2.241-.114-3.164-.795a41.365,41.365,0,0,1-7.543-7.935,2.79,2.79,0,0,1-.56-.923,2.906,2.906,0,0,1,0-1.293c.176-1.15.117-4.453,1.662-4.618C453.562,75.286,455.229,77.337,455.968,78.223Z" transform="translate(-284.86 -50.536)" fill="#24b8fe"/>
    <path id="Path_204" data-name="Path 204" d="M476.78,52.565a4.618,4.618,0,0,1,.278-2.519,4.622,4.622,0,0,0,.271-.516,2.2,2.2,0,0,0,.11-.7,8.515,8.515,0,0,1,.505-3.178c.084-.187.223-.392.428-.4s.388.3.447.549a12.171,12.171,0,0,1,.315,2.494.645.645,0,0,0,.11.425.561.561,0,0,0,.253.143,2.563,2.563,0,0,1,1.044.472c.157.157.253.366.4.531a4.145,4.145,0,0,0,.549.425,2.4,2.4,0,0,1,.831,1.673,4.267,4.267,0,0,1-.319,1.882,2.486,2.486,0,0,1-1.3,1.556,2.959,2.959,0,0,1-1.388.048A2.817,2.817,0,0,1,476.78,52.565Z" transform="translate(-301.512 -34.615)" fill="#f5e0cd"/>
    <path id="Path_205" data-name="Path 205" d="M290.33,147.335s.992,1.915,1.63,2.2a28.213,28.213,0,0,0,6.591.07c.516-.234,1.56-2.362,1.56-2.362Z" transform="translate(-183.366 -99.252)" fill="#24b8fe"/>
    <path id="Path_206" data-name="Path 206" d="M290.33,147.335s.992,1.915,1.63,2.2a28.213,28.213,0,0,0,6.591.07c.516-.234,1.56-2.362,1.56-2.362Z" transform="translate(-183.366 -99.252)" fill="url(#linear-gradient-5)"/>
    <path id="Path_207" data-name="Path 207" d="M290.752,65.414a.766.766,0,0,0-.018.333c.333,1.717-9.642,10.1-12.988.666a15.635,15.635,0,0,1-.648-2.5s-8.755-18.1-2.68-26a13.823,13.823,0,0,1,23.776,3.871C301.265,49.767,291.36,62.635,290.752,65.414Z" transform="translate(-171.919 -26.668)" fill="#24b8fe"/>
    <path id="Path_208" data-name="Path 208" d="M290.752,65.414a.766.766,0,0,0-.018.333c.333,1.717-9.642,10.1-12.988.666a15.635,15.635,0,0,1-.648-2.5s-8.755-18.1-2.68-26a13.823,13.823,0,0,1,23.776,3.871C301.265,49.767,291.36,62.635,290.752,65.414Z" transform="translate(-171.919 -26.668)" fill="url(#linear-gradient-6)"/>
    <path id="Path_209" data-name="Path 209" d="M300.208,120.341c.333,1.717-9.642,10.1-12.988.666a14.069,14.069,0,0,1,13.007-.989A.765.765,0,0,0,300.208,120.341Z" transform="translate(-181.395 -81.273)" fill="url(#linear-gradient-7)"/>
    <path id="Path_210" data-name="Path 210" d="M286.991,130.214a.82.82,0,0,1,.088.432.9.9,0,0,1-.212.366,1.831,1.831,0,0,0-.037,2.131c-.71.183-.868,1.216-.439,1.809a3.07,3.07,0,0,0,1.9.992,20.14,20.14,0,0,0,8.576.077c1.1-.227,2.3-.674,2.673-1.717a2.373,2.373,0,0,0-.732-.758c.326-.366.659-.912.348-1.282-.1-.124-.26-.194-.366-.308a1.014,1.014,0,0,1-.055-1.1,3.16,3.16,0,0,0,.4-1.08,1.055,1.055,0,0,0-.875-1.047c-2.582,1.025-5.46,2.058-8.056,1.1C288.987,129.354,285.819,127.12,286.991,130.214Z" transform="translate(-180.719 -87.44)" fill="#24b8fe"/>
    <path id="Path_211" data-name="Path 211" d="M286.991,130.214a.82.82,0,0,1,.088.432.9.9,0,0,1-.212.366,1.831,1.831,0,0,0-.037,2.131c-.71.183-.868,1.216-.439,1.809a3.07,3.07,0,0,0,1.9.992,20.14,20.14,0,0,0,8.576.077c1.1-.227,2.3-.674,2.673-1.717a2.373,2.373,0,0,0-.732-.758c.326-.366.659-.912.348-1.282-.1-.124-.26-.194-.366-.308a1.014,1.014,0,0,1-.055-1.1,3.16,3.16,0,0,0,.4-1.08,1.055,1.055,0,0,0-.875-1.047c-2.582,1.025-5.46,2.058-8.056,1.1C288.987,129.354,285.819,127.12,286.991,130.214Z" transform="translate(-180.719 -87.44)" fill="url(#linear-gradient-8)"/>
    <path id="Path_212" data-name="Path 212" d="M300.76,103.531l-.882-.216,1.1-4.394c2.047-8.312,1.7-10.231,1.3-10.619-.029-.029-.066-.066-.2-.037a1.1,1.1,0,0,0-.472.209,4.672,4.672,0,0,1,.575,1.337,1.9,1.9,0,0,1-.428,2.054.948.948,0,0,1-1.1.124c-.623-.366-.732-1.465-.6-2.347a3.492,3.492,0,0,1,.417-1.19,1.531,1.531,0,0,0-.831-.509c-.417-.081-.828.2-1.216.806a7.838,7.838,0,0,0-.41.732c.864.8,1.4,2.267,1,3a.842.842,0,0,1-.846.52A1.4,1.4,0,0,1,297,92.2a3,3,0,0,1-.1-2.366c-.286-.084-.663-.022-1.1.586-1.307,1.791.483,9.817,1.282,12.758l-.872.238c-.308-1.124-2.929-11.066-1.142-13.549.8-1.1,1.637-1.1,2.179-.89a7.2,7.2,0,0,1,.421-.732,2.071,2.071,0,0,1,2.124-1.212,2.34,2.34,0,0,1,1.271.732,2.033,2.033,0,0,1,.85-.406,1.077,1.077,0,0,1,1.036.3c.652.674,1.117,2.585-1.077,11.487Zm-3.1-13.084a1.919,1.919,0,0,0,.117,1.315c.132.238.293.322.366.322h0C298.314,91.816,298.1,91.036,297.658,90.447Zm3.384-1.1a2.448,2.448,0,0,0-.113.443,1.916,1.916,0,0,0,.168,1.421.7.7,0,0,0,.1-.062c.194-.146.231-.582.1-1.1a3.715,3.715,0,0,0-.249-.721Z" transform="translate(-185.977 -61.079)" fill="#fff"/>
  </g>
</svg>
