<svg xmlns="http://www.w3.org/2000/svg" xmlns:xlink="http://www.w3.org/1999/xlink" width="220.106" height="170.397" viewBox="0 0 220.106 170.397">
  <defs>
    <linearGradient id="linear-gradient" x1="0.505" y1="-0.372" x2="0.492" y2="1.887" gradientUnits="objectBoundingBox">
      <stop offset="0.01"/>
      <stop offset="0.08" stop-opacity="0.69"/>
      <stop offset="0.21" stop-opacity="0.322"/>
      <stop offset="1" stop-opacity="0"/>
    </linearGradient>
    <linearGradient id="linear-gradient-2" x1="0" y1="0.5" x2="1" y2="0.5" xlink:href="#linear-gradient"/>
    <linearGradient id="linear-gradient-3" x1="0.496" y1="-0.128" x2="0.51" y2="1.778" xlink:href="#linear-gradient"/>
    <linearGradient id="linear-gradient-4" x1="5.443" y1="0.441" x2="-13.677" y2="0.676" xlink:href="#linear-gradient"/>
    <linearGradient id="linear-gradient-5" x1="40.471" y1="0.541" x2="44.234" y2="0.419" xlink:href="#linear-gradient"/>
    <linearGradient id="linear-gradient-6" x1="2.21" y1="0.261" x2="-1.829" y2="0.825" xlink:href="#linear-gradient"/>
    <linearGradient id="linear-gradient-7" x1="124.281" y1="0.5" x2="125.28" y2="0.5" xlink:href="#linear-gradient"/>
    <linearGradient id="linear-gradient-8" x1="108.39" y1="-0.128" x2="108.404" y2="1.778" xlink:href="#linear-gradient"/>
    <linearGradient id="linear-gradient-9" x1="575.799" y1="0.441" x2="556.638" y2="0.676" xlink:href="#linear-gradient"/>
    <linearGradient id="linear-gradient-10" x1="182.808" y1="0.261" x2="178.768" y2="0.825" xlink:href="#linear-gradient"/>
  </defs>
  <g id="consulting" transform="translate(0 0.002)">
    <path id="Path_112" data-name="Path 112" d="M41.795,68.836C30.186,82.35,25.183,100.247,21.809,117.741A358.754,358.754,0,0,0,15.6,172.6c-.39,10.809.243,22.937,8.1,30.365,2.938,2.781,6.632,4.61,10.319,6.276,6.572,2.978,13.407,5.606,20.579,6.412,11.885,1.332,23.693-2.395,35.069-6.1,20.039-6.519,40.875-13.174,61.783-10.536,9.7,1.222,19.037,4.42,28.673,6.056s20.073,1.559,28.533-3.331c5.886-3.408,10.326-8.874,13.83-14.7,7.864-13.081,11.579-28.313,12.768-43.539a83.278,83.278,0,0,0-.879-22.534c-1.665-8.454-5.17-16.418-8.707-24.273-4.33-9.637-8.817-19.3-15.009-27.864s-14.273-16.055-24.1-19.923c-18.71-7.352-39.169-.849-58.076,2.109-9.66,1.5-19.653,2.472-29.293.3-4.64-1.046-8.364-3.2-13.124-3.368-5.02-.177-10.4,1-15.189,2.382A60.642,60.642,0,0,0,41.795,68.836Z" transform="translate(-15.51 -45.53)" fill="#24b8fe" opacity="0.18"/>
    <rect id="Rectangle_40" data-name="Rectangle 40" width="15.889" height="12.978" transform="translate(90.853 70.732)" fill="#24b8fe"/>
    <rect id="Rectangle_41" data-name="Rectangle 41" width="15.889" height="12.978" transform="translate(90.853 70.732)" fill="url(#linear-gradient)"/>
    <rect id="Rectangle_42" data-name="Rectangle 42" width="50.141" height="31.741" rx="14.38" transform="translate(74.761 44.108)" fill="#fff"/>
    <rect id="Rectangle_43" data-name="Rectangle 43" width="84.397" height="2.688" transform="translate(61.627 83.563)" fill="#fff"/>
    <rect id="Rectangle_44" data-name="Rectangle 44" width="84.397" height="1.123" transform="translate(61.627 85.129)" fill="#d9dbe2"/>
    <ellipse id="Ellipse_8" data-name="Ellipse 8" cx="90.097" cy="10.379" rx="90.097" ry="10.379" transform="translate(19.166 127.812)" fill="#24b8fe" opacity="0.18"/>
    <path id="Path_113" data-name="Path 113" d="M539.608,363.91s9.267,29.892,8.261,30.625-1.642-1.259-1.642-1.259L536.88,365.5Z" transform="translate(-363.212 -257.859)" fill="#24b8fe"/>
    <path id="Path_114" data-name="Path 114" d="M460.406,374.09l-.087.217L449.76,401.4a3.387,3.387,0,0,1-.71,1.126.686.686,0,0,1-1,.06C447.1,401.8,457.018,374,457.018,374Z" transform="translate(-303.929 -264.588)" fill="#24b8fe"/>
    <path id="Path_115" data-name="Path 115" d="M502.824,368.3s-.333,31.291-1.509,31.681-1.176-1.7-1.176-1.7l-.4-29.313Z" transform="translate(-338.443 -260.787)" fill="#24b8fe"/>
    <path id="Path_116" data-name="Path 116" d="M537.953,365s10.086,28.98,9.077,29.7-.8-.7-.8-.7l-9.347-27.78Z" transform="translate(-363.212 -258.586)" fill="url(#linear-gradient-2)"/>
    <path id="Path_117" data-name="Path 117" d="M462.439,374.82,451.88,401.911a3.387,3.387,0,0,1-.71,1.126c.037-3.1,9.024-28.267,9.024-28.267Z" transform="translate(-306.052 -265.102)" fill="url(#linear-gradient-3)"/>
    <path id="Path_118" data-name="Path 118" d="M504.635,368.3s-.333,31.291-1.509,31.681-.45-2.358-.45-2.358l.416-28.98Z" transform="translate(-340.254 -260.787)" fill="url(#linear-gradient-4)"/>
    <path id="Path_119" data-name="Path 119" d="M487.915,296.768c-2.212,5.1-7.188,8.617-12.521,10.2a37.755,37.755,0,0,1-12.894,1.169q-1.829-.1-3.664-.276a23.817,23.817,0,0,1-6.289-1.272,9.2,9.2,0,0,1-4.867-4.027,9.737,9.737,0,0,1-1-4.017c-.21-3.577.923-7.382,3.664-9.66,2.152-1.8,4.96-2.5,7.192-4.167,2.5-1.875,5.063-3.551,7.708-5.236a43.041,43.041,0,0,1,8.288-4.46,14.53,14.53,0,0,1,9.247-.526c1.036.333,2.632,1.136,4.194,4.96C489.241,284.917,490.267,291.342,487.915,296.768Z" transform="translate(-303.042 -197.869)" fill="#2f3653"/>
    <path id="Path_120" data-name="Path 120" d="M494.559,211.354c-1.063,1.456-4.3,2.861-4.3,2.861-.373-1.439.423-1.972.423-1.972.829.073,1.919-1.949,1.562-2.585-.44-.793-1.049-.51-1.456-.17a3.844,3.844,0,0,1-1.469-2.715c-.053-.623,1.023-2.382-1.039-3.144a9.907,9.907,0,0,0-4.967,0s-.749-1.922,1.665-2.841c5.42-2.072,11.862,1.462,11.5,7.535-.1,1.646-.207,3.514.933,4.7a6.294,6.294,0,0,0,2.332,1.286,7.163,7.163,0,0,1,2.941,1.812,2.862,2.862,0,0,1,.48,3.231c-.286.476-.783.933-.666,1.476a1.536,1.536,0,0,0,.416.636A8.813,8.813,0,0,1,505.2,226.3a6.309,6.309,0,0,1-1.572,5.02c-1.665,1.749-4.33,2.205-6.719,1.845a8.65,8.65,0,0,1-5.156-2.542c-2-2.208-2.248-5.416-2.8-8.327a1.736,1.736,0,0,0-.413-.973c-.583-.546-1.519-.1-2.315-.123-1.376-.03-2.3-1.539-2.332-2.911a18.244,18.244,0,0,1,.8-4.027c.28-1.362.193-2.935-.849-3.831-.39-.333-.876-.543-1.3-.843-1.859-1.332-1.749-4.407-.163-6.059a7.159,7.159,0,0,1,6.386-1.665c1.812.333,5.9,1.332,6.742,3S495.628,209.9,494.559,211.354Z" transform="translate(-326.064 -148.676)" fill="#fc682d"/>
    <path id="Path_121" data-name="Path 121" d="M421.446,259.75l-8.737,8.994-11.6-6.116a8.617,8.617,0,0,0-4.773-1.276c-.173,0-.406.1-.366.266s.233.18.263.333-.157.246-.31.28l-2.771.616c-.406.093-.9.283-.923.7a.909.909,0,0,0,.416.686,9.208,9.208,0,0,0,6.765,1.635,2.415,2.415,0,0,1,.693,0,2.252,2.252,0,0,1,.64.27,28.8,28.8,0,0,1,2.6,1.629c2.275,1.6,4.31,3.521,6.619,5.073a3.311,3.311,0,0,0,1.606.683,3.511,3.511,0,0,0,1.5-.363c3.331-1.332,6.745-2.755,9.28-5.293a2.33,2.33,0,0,0,.54-.719,2.555,2.555,0,0,0,.13-.856q.05-1.829-.047-3.664a3.524,3.524,0,0,0-.356-1.609,1.266,1.266,0,0,0-1.4-.65" transform="translate(-266.745 -188.395)" fill="#fdbaac"/>
    <path id="Path_122" data-name="Path 122" d="M447.785,284.637a4.854,4.854,0,0,1-.916.553,5.457,5.457,0,0,1-2.268.22,20.515,20.515,0,0,0-3.471.207,1.822,1.822,0,0,0-.813.257.666.666,0,0,0-.28.746.979.979,0,0,0,.333.37,6.409,6.409,0,0,0,3.114,1.665,6.5,6.5,0,0,0,4-1.292l2.552-1.469a2.735,2.735,0,0,0,.973-.8c.356-.55.44-2.085-.426-2.245C449.87,282.712,448.335,284.228,447.785,284.637Z" transform="translate(-298.61 -203.795)" fill="#dea095"/>
    <path id="Path_123" data-name="Path 123" d="M472.129,252.749a2.415,2.415,0,0,1,.516-.107,20.8,20.8,0,0,1,2.761.173c1.242.053,2.488.083,3.734.043,2.375-.07,6.272-.333,8.4,2.265,2.635,3.208.363,8.847-1.476,13.078-.666,1.579-1.019,6.692-.666,10.429,0,0-7.395,2.588-13.9,1.239l-2.232-8.374a10.741,10.741,0,0,0-.7-1.306,15.08,15.08,0,0,1-1.119-3.511c-.266-1.4-.666-3.727-.067-5.073.09-.207.4-.366.426-.583.037-.3-.36-.8-.483-1.069a16.055,16.055,0,0,1-.976-2.711.709.709,0,0,1-.02-.446.746.746,0,0,1,.253-.286c.976-.783,1.955-1.566,3-2.272A10.342,10.342,0,0,1,472.129,252.749Z" transform="translate(-316.142 -183.642)" fill="#fff"/>
    <path id="Path_124" data-name="Path 124" d="M498.32,235.21c-.493,1.569-2.555,4.33-4.913,3.694a3.038,3.038,0,0,1-.187,3.234s.766,1.955,5.943-.936c0,0-1.4-.117-1.019-3a6.2,6.2,0,0,1,1.019-2.758.506.506,0,0,1-.843-.237Z" transform="translate(-334.095 -172.029)" fill="#fdbaac"/>
    <path id="Path_125" data-name="Path 125" d="M498.08,237.58s-1.136,4.827-3.061,4.623-1.8-3.141-1.8-3.141Z" transform="translate(-334.092 -173.609)" fill="#dea095"/>
    <path id="Path_126" data-name="Path 126" d="M517.789,244.962a5.8,5.8,0,0,0-1.232-4.12c-1.079-1.259-2.735-1.825-4.277-2.438a2.687,2.687,0,0,1-1.635-1.242,5.676,5.676,0,0,1-.217-1.372c-.073-.46-.333-.959-.806-1.023a1.086,1.086,0,0,0-.789.276,3.447,3.447,0,0,0-1.069,3.351,8.93,8.93,0,0,0,1.586,3.311,13.6,13.6,0,0,1,1.819,3.208c.3.889.383,1.835.6,2.748.48,2,2.162,3.2,4.137,2.059C517.266,248.93,517.693,246.365,517.789,244.962Z" transform="translate(-343.748 -171.732)" fill="#fc682d"/>
    <path id="Path_127" data-name="Path 127" d="M484.137,202s-3.138.183-4.07,4.73,3.6,4.47,3.6,4.47l2.755-7.888Z" transform="translate(-325.239 -149.881)" fill="#fc682d"/>
    <path id="Path_128" data-name="Path 128" d="M488.943,218.952c-2.841.237-4.567-2.415-4.887-5.879-.033-.38-.047-.766-.047-1.163a14.176,14.176,0,0,1,.386-3.354c1.242-5.33,8.814-3.188,8.814-3.188C499.142,208.03,493.879,218.543,488.943,218.952Z" transform="translate(-327.953 -151.844)" fill="#fdbaac"/>
    <path id="Path_129" data-name="Path 129" d="M492.72,204.06c.739,2.568,1.729,6.219,4.237,7.628a2.122,2.122,0,0,0,1.159.36c.343-.07.333-.383.646-.666a.666.666,0,0,1,.756-.13.783.783,0,0,1,.31.666,1.829,1.829,0,0,1-.879,1.569,4.5,4.5,0,0,0-.71.406,1.419,1.419,0,0,0-.42.926,2.482,2.482,0,0,0,1.226,2.372.35.35,0,0,0,.17.053.333.333,0,0,0,.187-.11l1.123-1.026a9.3,9.3,0,0,0,1.436-1.529,4.664,4.664,0,0,0,.8-2.582c0-.416-.167-.836-.16-1.236a6,6,0,0,1,.416-1.532,5.434,5.434,0,0,0,.38-2,3.971,3.971,0,0,0-2.4-3,14.209,14.209,0,0,0-6.189-1.066,3.2,3.2,0,0,0-1.242.167C493.206,203.537,493.056,203.936,492.72,204.06Z" transform="translate(-333.762 -150.655)" fill="#fc682d"/>
    <path id="Path_130" data-name="Path 130" d="M507.82,274.177l2.168,4.763s4.663-5.816,6.439-12.095c1.552-5.549-1.2-6.945-1.2-6.945-2.105-.773-3.534,2.228-5.6,8.291C508.486,271.513,507.82,274.177,507.82,274.177Z" transform="translate(-343.832 -188.416)" fill="#fdbaac"/>
    <path id="Path_131" data-name="Path 131" d="M477.944,302.278s.083-3.874-1.805-4.643-15.126-2.845-15.126-2.845l-1.242,1.432S472.768,303.717,477.944,302.278Z" transform="translate(-311.787 -211.763)" fill="#fdbaac"/>
    <path id="Path_132" data-name="Path 132" d="M447.836,347.667l.16-.167c-.643.723-1.073,1.242-1.206,1.4A14.991,14.991,0,0,1,447.836,347.667Z" transform="translate(-303.131 -246.915)" fill="#dc9ed5"/>
    <path id="Path_133" data-name="Path 133" d="M475.639,333.7a8.819,8.819,0,0,1-3.8,5.509,21.7,21.7,0,0,1-6.262,2.755c-1.3.4-2.1,2.059-3.271,2.748a2.948,2.948,0,0,0-1.076.9,3.025,3.025,0,0,0,0,2.362q1.489,5.173,3,10.343a9.79,9.79,0,0,1,.526,5.25c-.473,1.722-2.285,3.2-3.974,2.635l-9.906-15.989s-1.629-6.435,1.789-11.908c1.476-2.358,13.034-12.091,13.034-12.091,2.955-.43,5.959-.63,8.814-.793C474.846,328.2,476.119,330.943,475.639,333.7Z" transform="translate(-305.595 -232.19)" fill="#24b8fe"/>
    <path id="Path_134" data-name="Path 134" d="M439.567,326.2s-11.8,9.6-13.034,12.091c-3.461,6.952-1.789,11.908-1.789,11.908l-8.661,13.93c-2,.043-4.693-.5-4.793-2.5a3.918,3.918,0,0,1,.393-1.629l6.525-16.255a40.211,40.211,0,0,1,4.69-9.28l.183-.24v-.02l.027-.033c.133-.16.563-.666,1.206-1.4v-.02c1.875-2.1,5.536-5.846,8.92-7.328a21.411,21.411,0,0,0,6.3.793Z" transform="translate(-279.456 -232.19)" fill="#24b8fe"/>
    <path id="Path_135" data-name="Path 135" d="M439.567,326.2s-11.8,9.6-13.034,12.091c-3.461,6.952-1.789,11.908-1.789,11.908l-8.661,13.93c-2,.043-4.693-.5-4.793-2.5a3.918,3.918,0,0,1,.393-1.629l6.525-16.255a40.211,40.211,0,0,1,4.69-9.28l.183-.24v-.02l.027-.033c.133-.16.563-.666,1.206-1.4v-.02c1.875-2.1,5.536-5.846,8.92-7.328a21.411,21.411,0,0,0,6.3.793Z" transform="translate(-279.456 -232.19)" fill="url(#linear-gradient-5)"/>
    <path id="Path_136" data-name="Path 136" d="M474.464,445.616c-.773.713-1.8,1.426-1.765,2.478a.5.5,0,0,0,.083.293.576.576,0,0,0,.4.167c2.378.263,4.59-1.186,6.439-2.708a2.617,2.617,0,0,0,1.063-1.416,2.918,2.918,0,0,0-.473-1.735,16.659,16.659,0,0,1-1.069-2.765c.083.283-1.113,1.289-1.316,1.466a8.677,8.677,0,0,0-1.389,1.1,13.65,13.65,0,0,0-.666,1.449A6.846,6.846,0,0,1,474.464,445.616Z" transform="translate(-320.408 -308.557)" fill="#eb9d80"/>
    <path id="Path_137" data-name="Path 137" d="M399.278,439.094a4.552,4.552,0,0,0-2.332,1.166.793.793,0,0,0-.177.443c0,.44.51.666.939.766a15.288,15.288,0,0,0,5.22-.147,1.079,1.079,0,0,0,1.093-.976l.683-2.105a.313.313,0,0,0,.023-.2.333.333,0,0,0-.14-.153,8.968,8.968,0,0,0-1.489-.843c-.7-.333-.749-.3-1.219.253a6.153,6.153,0,0,1-2.6,1.792Z" transform="translate(-269.773 -306.491)" fill="#eb9d80"/>
    <path id="Path_138" data-name="Path 138" d="M448.021,293.639c-1.369-.216-2.908-.393-4.014.436a5.223,5.223,0,0,0-1.266,1.622,1.365,1.365,0,0,0-.26,1.2,1.334,1.334,0,0,0,1,.6,6.442,6.442,0,0,0,3.831.12,23.371,23.371,0,0,1,2.552-1.312,1.242,1.242,0,0,0,.45-.153.769.769,0,0,0,.257-.413C451.132,293.862,449.273,293.815,448.021,293.639Z" transform="translate(-300.215 -210.875)" fill="#fdbaac"/>
    <path id="Path_139" data-name="Path 139" d="M395.85,447.734a.6.6,0,0,1-.213.24.643.643,0,0,1-.426,0,11.723,11.723,0,0,0-2.332-.08,31.9,31.9,0,0,1-4.76-.433,2.591,2.591,0,0,1-1.845-.809.44.44,0,0,1-.093-.223.52.52,0,0,1,.137-.333,5.806,5.806,0,0,1,2.618-1.785,3.291,3.291,0,0,1,1.193-.26,1.4,1.4,0,0,1,1.086.483c.283.36.333.876.643,1.2a1.667,1.667,0,0,0,1.309.333,10.524,10.524,0,0,0,1.612-.183,3.847,3.847,0,0,1,1.4-.25C397.112,445.888,396.113,447.264,395.85,447.734Z" transform="translate(-262.71 -311.304)" fill="#24b8fe"/>
    <path id="Path_140" data-name="Path 140" d="M478.315,452.638a.666.666,0,0,1-.047.363.743.743,0,0,1-.4.276,13.019,13.019,0,0,0-2.275,1.416,36.1,36.1,0,0,1-4.76,2.6,3,3,0,0,1-2.265.406.514.514,0,0,1-.23-.15.586.586,0,0,1-.08-.4,6.619,6.619,0,0,1,1.332-3.358,3.718,3.718,0,0,1,.969-1,1.6,1.6,0,0,1,1.332-.233c.5.16.863.623,1.372.726a1.976,1.976,0,0,0,1.462-.5,12.133,12.133,0,0,0,1.412-1.2c.333-.333.716-.966,1.166-1.126C478.335,450.087,478.278,452.019,478.315,452.638Z" transform="translate(-317.441 -315.546)" fill="#24b8fe"/>
    <path id="Path_141" data-name="Path 141" d="M519.156,258.39a15.752,15.752,0,0,1,.666,3.128l.2,1.432a1.569,1.569,0,0,1-.047.9c-.237.5-1.193.3-1.666.373-.846.137-1.689.27-2.535.4q-2.538.39-5.076.746a10.118,10.118,0,0,1,.063-2.581c.157-.813.506-1.576.706-2.378.163-.666.223-1.332.393-2a6.189,6.189,0,0,1,2.312-3.414c1.782-1.3,4.4,1.852,4.943,3.271Z" transform="translate(-345.718 -185.016)" fill="#fff"/>
    <path id="Path_142" data-name="Path 142" d="M519.635,312.063c-2.212,5.1-7.188,8.617-12.521,10.2a37.755,37.755,0,0,1-12.894,1.169c0-.3.173-.476.536-.493,4.174-.21,5.9-5.7,7.155-8.487s2.109-6.3,10.259-9.533c7.941-3.144,6.972-9.06,7.368-7.868C521.414,302.656,521.987,306.637,519.635,312.063Z" transform="translate(-334.762 -213.163)" fill="#2f3653"/>
    <path id="Path_143" data-name="Path 143" d="M518.938,298.558c-2.212,5.1-7.188,8.614-12.521,10.2a45.031,45.031,0,0,1-14.1,1.182c0-.293.806-.723,1.169-.739,4.174-.21,6-6.725,7.248-9.517s2.4-4.43,10.166-8.5c11.6-6.082,3.208-14.357,3.061-14.886,2.781.9,4.33,6.549,4.723,7.741C520.563,289.641,521.29,293.128,518.938,298.558Z" transform="translate(-333.495 -199.425)" fill="#fff"/>
    <path id="Path_144" data-name="Path 144" d="M503.506,367.59c-3.528.9-7.262.933-10.7,2.148,1.089-.386,3.371.213,4.583.177a33.578,33.578,0,0,0,4.966-.523c2.9-.526,6.745-1.332,9.137-3.121C509.938,364.945,505.231,367.151,503.506,367.59Z" transform="translate(-333.822 -259.154)" fill="#24b8fe" opacity="0.23"/>
    <path id="Path_145" data-name="Path 145" d="M515.638,405.1a.665.665,0,0,1-.173.077.786.786,0,0,1-.333.017c-1.236-.153-7.3-29.036-7.3-29.036l.829-.483c.06-.033.13-.07.19-.1a1.7,1.7,0,0,1,2.255.969v.033a1.4,1.4,0,0,1,.077.27l4.77,26.451S516.234,404.7,515.638,405.1Z" transform="translate(-343.839 -265.554)" fill="#24b8fe"/>
    <path id="Path_146" data-name="Path 146" d="M517.808,402.74s-.05,1.665-.137,2.378c-.053.333-.1.466-.173.077h0c-.6-3.494-5.549-24.943-6.619-29.593a1.7,1.7,0,0,1,2.255.969v.033Z" transform="translate(-345.873 -265.567)" fill="url(#linear-gradient-6)"/>
    <path id="Path_147" data-name="Path 147" d="M131.1,363.91s-9.25,29.892-8.251,30.625,1.639-1.259,1.639-1.259l9.353-27.781Z" transform="translate(-87.044 -257.859)" fill="#24b8fe"/>
    <path id="Path_148" data-name="Path 148" d="M207.57,374.117l.087.217,10.559,27.091a3.388,3.388,0,0,0,.71,1.126.686.686,0,0,0,1,.06c.966-.779-8.954-28.57-8.954-28.57Z" transform="translate(-143.595 -264.615)" fill="#24b8fe"/>
    <path id="Path_149" data-name="Path 149" d="M183.9,368.3s.333,31.291,1.506,31.681,1.192-1.7,1.192-1.7l.4-29.313Z" transform="translate(-127.809 -260.787)" fill="#24b8fe"/>
    <path id="Path_150" data-name="Path 150" d="M134.425,365s-10.086,28.98-9.077,29.7.8-.7.8-.7l9.36-27.777Z" transform="translate(-88.714 -258.586)" fill="url(#linear-gradient-7)"/>
    <path id="Path_151" data-name="Path 151" d="M207.83,374.82l10.559,27.091a3.387,3.387,0,0,0,.71,1.126c-.033-3.1-9.024-28.267-9.024-28.267Z" transform="translate(-143.768 -265.102)" fill="url(#linear-gradient-8)"/>
    <path id="Path_152" data-name="Path 152" d="M183.9,368.3s.333,31.291,1.506,31.681.45-2.358.45-2.358l-.416-28.98Z" transform="translate(-127.809 -260.787)" fill="url(#linear-gradient-9)"/>
    <path id="Path_153" data-name="Path 153" d="M119.642,296.768c2.212,5.1,7.188,8.617,12.521,10.2a37.755,37.755,0,0,0,12.894,1.169q1.829-.1,3.647-.28a23.679,23.679,0,0,0,6.289-1.269,9.2,9.2,0,0,0,4.867-4.027,9.7,9.7,0,0,0,1-4.017c.21-3.577-.923-7.382-3.664-9.66-2.152-1.8-4.96-2.5-7.192-4.167-2.5-1.875-5.063-3.551-7.708-5.236a43.04,43.04,0,0,0-8.288-4.46,14.53,14.53,0,0,0-9.247-.526c-1.036.333-2.631,1.136-4.194,4.96C118.32,284.917,117.29,291.342,119.642,296.768Z" transform="translate(-84.064 -197.869)" fill="#2f3653"/>
    <path id="Path_154" data-name="Path 154" d="M142.476,258.045a13.826,13.826,0,0,1,.926,2.665c.2,1.119.543,2.218.739,3.348a37.843,37.843,0,0,1,.563,6.859,3.469,3.469,0,0,0,.65,2.565,3.113,3.113,0,0,0,1.665.666c1.176.236,2.238.7,3.414.9a23.147,23.147,0,0,0,3.871.233c3.817,0,10.919-.426,10.683-5.749a179.846,179.846,0,0,0-1.586-17.961,39.26,39.26,0,0,0-.956-6.289c-.513-1.636-2.418-1.649-4-1.482l-.3.033c-.306.03-.613.07-.909.107a42.7,42.7,0,0,1-6.329.187c-2.375-.073-6.179-.31-8.514,1.929a5.293,5.293,0,0,0-.456.49C139.618,249.381,140.864,253.982,142.476,258.045Z" transform="translate(-98.974 -177.713)" fill="#fff"/>
    <path id="Path_155" data-name="Path 155" d="M153.156,267.6c.2,2.665-.553,5.506.846,7.735a.683.683,0,0,0,.29.293,1,1,0,0,0,.6-.067,1.552,1.552,0,0,1,1.852,1.406,2.925,2.925,0,0,0,1.156-2.115c.03-.463,0-1.026.386-1.279.5-.333,1.146.257,1.252.843a17.465,17.465,0,0,0,.107,1.779,2.2,2.2,0,0,0,1.722,1.4,7.992,7.992,0,0,0,2.332,0,3.331,3.331,0,0,1,1.665.177,1.251,1.251,0,0,1,.753,1.372c-.187.65-.973.876-1.639,1l-9.147,1.705-4.707.879c-1.029.19-2.848,1.1-2.881-.423a25.235,25.235,0,0,0-1.059-6.719c-.263-.879-.293-1.779-.55-2.631-.313-1.036-.889-2.029-1.242-3.065a29.879,29.879,0,0,1-1.429-6.425c-.167-1.539-.06-3.394,1.259-4.2a2.894,2.894,0,0,1,3.131.333c1.093.809,1.6,2.082,2.6,2.935a7.082,7.082,0,0,1,2.478,3.647A8.328,8.328,0,0,1,153.156,267.6Z" transform="translate(-100.799 -187.853)" fill="#d9dbe2" opacity="0.43"/>
    <path id="Path_156" data-name="Path 156" d="M180.956,251.751a1.086,1.086,0,0,0-.17.333.763.763,0,0,0,.077.38,70.861,70.861,0,0,1,2.891,9.993,49.511,49.511,0,0,1,1.562,9.017,1.942,1.942,0,0,1-.05.666c-.233.753-1.216,1-1.646,1.649l-1.429-1.632a1.068,1.068,0,0,1-.22-.333,1.083,1.083,0,0,1,0-.526,26.111,26.111,0,0,0-.816-9.8c-.666-2.758-1.489-5.519-1.439-8.354a1.249,1.249,0,0,0-.257-.963,1.772,1.772,0,0,0-.473-.227,1.6,1.6,0,0,1-.719-2.165,1.939,1.939,0,0,0,.869-.223,1.306,1.306,0,0,1,.883-.117A2.065,2.065,0,0,1,180.956,251.751Z" transform="translate(-123.936 -181.505)" fill="#24b8fe"/>
    <path id="Path_157" data-name="Path 157" d="M145.88,245.723c2.332-2.238,6.139-2,8.514-1.929a42.7,42.7,0,0,0,6.329-.187c.3-.037.6-.077.909-.107-1.256-.513-3.038-.17-4.377-.127q-3.045.1-6.086.37C149.251,243.921,147.126,244.251,145.88,245.723Z" transform="translate(-102.454 -177.372)" fill="#fff"/>
    <path id="Path_158" data-name="Path 158" d="M165.7,225.59a4.29,4.29,0,0,0,5.2,2.578s-1,3,.25,4.827c0,0-.816,2.089-6.352-1,0,0,1.5-.123,1.089-3.194a6.589,6.589,0,0,0-1.089-2.948.54.54,0,0,0,.9-.263Z" transform="translate(-115.072 -165.613)" fill="#d5846c"/>
    <path id="Path_159" data-name="Path 159" d="M164.85,206.882c2.918.859,5.3-1.546,6.379-5.1.117-.386.217-.793.3-1.206a15.45,15.45,0,0,0,.333-3.594c-.17-5.826-8.561-5.233-8.561-5.233C156.526,193.255,159.771,205.39,164.85,206.882Z" transform="translate(-111.508 -143.031)" fill="#eb9d80"/>
    <path id="Path_160" data-name="Path 160" d="M229.783,345.74l-.173-.18c.686.773,1.149,1.332,1.289,1.5C230.553,346.606,230.176,346.163,229.783,345.74Z" transform="translate(-158.294 -245.621)" fill="#dc9ed5"/>
    <path id="Path_161" data-name="Path 161" d="M153.295,179.237a5.24,5.24,0,0,1,2.395-2.428c.959-.506,2.358-.406,3.144-1.2a4.938,4.938,0,0,0,.749-1.612,2.845,2.845,0,0,1,1.193-1.3,2.582,2.582,0,0,1,1.119-.333,3.077,3.077,0,0,1,2.781,2,1.855,1.855,0,0,1,1.665-.749,4.041,4.041,0,0,1,3.444,2.425,3.5,3.5,0,0,1,.333,1.692,2.332,2.332,0,0,1-.713,1.549.613.613,0,0,1-.333.18.266.266,0,0,1-.3-.173,12.5,12.5,0,0,1-1.556,2.478,2.139,2.139,0,0,1-.8.666,1.746,1.746,0,0,1-.979.057,3.664,3.664,0,0,1-1.259-.486.333.333,0,0,0-.243-.073c-.087.023-.133.11-.177.19a1.9,1.9,0,0,1-1.182.966,3.9,3.9,0,0,1-1.332-.05,7.306,7.306,0,0,0-1.809,0,2.451,2.451,0,0,0-1.039.333,1.549,1.549,0,0,0-.62,1.239c0,.19.187,1.755-.043,1.792-.37.063-.443-.55-.766-.74s-.636.057-.8.333a1.332,1.332,0,0,0,.15,1.532.9.9,0,0,1,.253.353.69.69,0,0,1-.067.4l-.57,1.432a34.492,34.492,0,0,0-2.735-5.183,2.871,2.871,0,0,1-.773-2.178c.2-.769,1.033-1.332.859-2.082-.033-.143-.1-.276-.123-.423A1.129,1.129,0,0,1,153.295,179.237Z" transform="translate(-106.794 -130.116)" fill="#fc682d"/>
    <path id="Path_162" data-name="Path 162" d="M169.55,322.732s3.554,8.87,6.406,9.8,20.552,6.272,20.552,6.272l7.525,25.5,1.945-1.192c.736-.453,2.495-1.106,2.941-1.842.593-.969-.3-3.514-.47-4.617l-.769-5q-1.552-10.133-3.114-20.269a1.622,1.622,0,0,0-1.073-1.529,113.834,113.834,0,0,0-10.716-5.04c-1.792-.733-3.6-1.412-5.423-2.059-.36-.127-3.028-1.586-3.1-1.529C184.23,321.237,182.338,322.659,169.55,322.732Z" transform="translate(-118.239 -229.392)" fill="#2f3653"/>
    <path id="Path_163" data-name="Path 163" d="M191.915,368.1a19.7,19.7,0,0,1-1.129-5.826c-.177-1.486-.46-2.955-.743-4.424l-3.871-20.212a2.072,2.072,0,0,0-1.462-1.905c-6.216-3.035-12.325-6.219-18.487-9.373,0,0-6.662-2.418-11.609.959,0,0-.666,8.091,2.185,9.02q9.45,3.081,19.05,5.629a2.138,2.138,0,0,1,.833.366,2.075,2.075,0,0,1,.56,1.019c2.332,7.1,4.663,14.2,6.792,21.355q.38,1.266.749,2.528c.19.643.333,2.332.8,2.778.623.63,1.446,0,2.278-.333l4.543-1.832-14.7-35.6-2.138-1.1" transform="translate(-108.234 -232.259)" fill="#4c516c"/>
    <path id="Path_164" data-name="Path 164" d="M283.368,442.548a14.95,14.95,0,0,1,2.245.223,3.764,3.764,0,0,1,1.9.773,1.8,1.8,0,0,1,.59,1.053,1.372,1.372,0,0,1-.35,1.136,2.431,2.431,0,0,1-.923.5q-1.189.42-2.382.829a19.465,19.465,0,0,1-5.23,1.276.666.666,0,0,1-.316-.033.719.719,0,0,1-.207-.157,7.341,7.341,0,0,1-2.358-3.784.3.3,0,0,1,0-.153.333.333,0,0,1,.127-.133A12.684,12.684,0,0,1,280,442.408C281.143,442.078,282.216,442.524,283.368,442.548Z" transform="translate(-189.451 -310.128)" fill="#2f3653"/>
    <path id="Path_165" data-name="Path 165" d="M257.485,452.807a14.947,14.947,0,0,1,2.245.223,3.764,3.764,0,0,1,1.9.773,1.8,1.8,0,0,1,.59,1.053,1.372,1.372,0,0,1-.35,1.136,2.432,2.432,0,0,1-.923.5q-1.189.42-2.382.829a19.463,19.463,0,0,1-5.23,1.276.666.666,0,0,1-.333-.033.719.719,0,0,1-.207-.157,7.341,7.341,0,0,1-2.358-3.784.3.3,0,0,1,0-.153.333.333,0,0,1,.127-.133,12.684,12.684,0,0,1,3.538-1.666C255.26,452.337,256.316,452.78,257.485,452.807Z" transform="translate(-172.178 -316.97)" fill="#2f3653"/>
    <path id="Path_166" data-name="Path 166" d="M119.228,312.063c2.212,5.1,7.188,8.617,12.521,10.2a37.755,37.755,0,0,0,12.894,1.169c0-.3-.173-.476-.536-.493-4.174-.21-5.9-5.7-7.155-8.487s-2.109-6.3-10.259-9.533c-7.941-3.144-6.972-9.06-7.368-7.868C117.456,302.656,116.876,306.637,119.228,312.063Z" transform="translate(-83.65 -213.163)" fill="#2f3653"/>
    <path id="Path_167" data-name="Path 167" d="M117.645,298.571c2.212,5.1,7.188,8.614,12.521,10.2a45.033,45.033,0,0,0,14.1,1.182c0-.293-.806-.723-1.169-.739-4.174-.21-6-6.725-7.248-9.517s-2.415-4.43-10.166-8.5c-11.6-6.082-3.208-14.357-3.061-14.886-2.781.9-4.33,6.549-4.723,7.741C116.019,289.654,115.293,293.142,117.645,298.571Z" transform="translate(-82.636 -199.438)" fill="#fff"/>
    <path id="Path_168" data-name="Path 168" d="M151.921,367.59c3.528.9,7.262.933,10.7,2.148-1.089-.386-3.371.213-4.583.177a33.489,33.489,0,0,1-4.963-.523c-2.9-.526-6.745-1.332-9.14-3.121C145.489,364.945,150.2,367.151,151.921,367.59Z" transform="translate(-101.153 -259.154)" fill="#24b8fe" opacity="0.23"/>
    <path id="Path_169" data-name="Path 169" d="M160.805,405.1a.666.666,0,0,0,.173.077.79.79,0,0,0,.333.017c1.236-.153,7.3-29.036,7.3-29.036l-.829-.483c-.06-.033-.13-.07-.19-.1a1.7,1.7,0,0,0-2.255.969v.033a1.2,1.2,0,0,0-.08.27l-4.77,26.451S160.209,404.7,160.805,405.1Z" transform="translate(-112.153 -265.554)" fill="#24b8fe"/>
    <path id="Path_170" data-name="Path 170" d="M161.16,402.74s.05,1.665.137,2.378c.053.333.1.466.173.077h0c.6-3.494,5.549-24.943,6.619-29.593a1.7,1.7,0,0,0-2.255.969v.033Z" transform="translate(-112.644 -265.567)" fill="url(#linear-gradient-10)"/>
    <path id="Path_171" data-name="Path 171" d="M150.37,277.646a1.819,1.819,0,0,1-.646,1.109,2.721,2.721,0,0,1-1.286.586,6.019,6.019,0,0,1-2.7-.38,52.471,52.471,0,0,1-8.124-3.284,5.388,5.388,0,0,1-2.258-1.732,5.574,5.574,0,0,1-.546-3.134,116.849,116.849,0,0,1,1.163-13.421c.28-1.969.256-5.016,1.436-6.9a3.368,3.368,0,0,1,2.811-1.665c1.872-.113,3.421,1.665,3.764,3.5a12.841,12.841,0,0,1-.666,5.536c-.666,2.612-1.246,5.26-1.665,7.924a5.555,5.555,0,0,0,.22,3.534,5.289,5.289,0,0,0,1,1.232,30.832,30.832,0,0,0,5.206,4.08C149.214,275.358,150.566,276.324,150.37,277.646Z" transform="translate(-95.066 -181.108)" fill="#fff"/>
    <path id="Path_172" data-name="Path 172" d="M218.44,258.886a3.264,3.264,0,0,1-1.626,2.232,9.789,9.789,0,0,1-2.665.983l-3.824,1c-2,.526-4.407.943-5.889-.5a2.155,2.155,0,0,1-.666-1.945,1.333,1.333,0,0,1,.23-.5,3.228,3.228,0,0,1,1-.743,9.533,9.533,0,0,0,2.821-2.555,24.417,24.417,0,0,1-6.519-3.178,9.469,9.469,0,0,1-1-.866,9.993,9.993,0,0,1-2.718-5.13,6.5,6.5,0,0,1-.153-2.978c.4-1.1,1.163-.593,2.242-.283a35.16,35.16,0,0,1,11.355,5.876,53.66,53.66,0,0,1,5.566,4.9C217.6,256.208,218.636,257.471,218.44,258.886Z" transform="translate(-136.747 -177.914)" fill="#fff"/>
    <path id="Path_173" data-name="Path 173" d="M216.837,271.125c-1.332.923-2.7,1.812-4.09,2.665-.4.25-.963.493-1.306.16a.57.57,0,0,1-.177-.333,1.332,1.332,0,0,1,.23-.5,3.227,3.227,0,0,1,1-.743,9.533,9.533,0,0,0,2.821-2.555,23.12,23.12,0,0,1-6.525-3.138v-.28a13.317,13.317,0,0,0-.26-2.875l8.514,5.27a1.572,1.572,0,0,1,.753.753C218.013,270.169,217.394,270.745,216.837,271.125Z" transform="translate(-144.235 -190.915)" fill="#d9dbe2" opacity="0.38"/>
    <path id="Path_174" data-name="Path 174" d="M207.875,295.743a5.58,5.58,0,0,0-.383,1.955,5.18,5.18,0,0,0,.423,2.665,2.316,2.316,0,0,0,2.2,1.332,2.142,2.142,0,0,0,1.512-1,3.484,3.484,0,0,0,.5-1.782,1.226,1.226,0,0,0,.749-.973,3.517,3.517,0,0,1,.393-1.219c.253-.356.69-.556.9-.939a1.246,1.246,0,0,0-.037-1.156c-.546-1.056-2.255-1.969-3.374-1.479A5.621,5.621,0,0,0,207.875,295.743Z" transform="translate(-143.523 -210.577)" fill="#eb9d80"/>
    <path id="Path_175" data-name="Path 175" d="M175.563,330.262c.7,1.046,2.188,1.186,3.434,1a10.947,10.947,0,0,0,3.631-1.2,1.362,1.362,0,0,0,.693-.643,1.056,1.056,0,0,0,0-.626,2.6,2.6,0,0,0-1.332-1.579,7.822,7.822,0,0,0-2.015-.666,6.278,6.278,0,0,0-3.421-.133c-1.089.38-1.292.333-1.412,1.426A3.878,3.878,0,0,0,175.563,330.262Z" transform="translate(-121.951 -232.725)" fill="#eb9d80"/>
    <path id="Path_176" data-name="Path 176" d="M164.441,240.64l2.262,1.173a10.475,10.475,0,0,1,2.225,1.4,9.772,9.772,0,0,0-.8,2.888,10.693,10.693,0,0,0-2.055-1.959c-.716-.473-1.549-.766-2.218-1.309C163.069,242.192,164.038,241.293,164.441,240.64Z" transform="translate(-114.243 -175.65)" fill="#fff"/>
    <path id="Path_177" data-name="Path 177" d="M183.392,243.6,184.448,245a.643.643,0,0,1,.147.283,10.948,10.948,0,0,0-2.552-.833.257.257,0,0,1-.266-.35,2.741,2.741,0,0,0-.257-1.542,1.233,1.233,0,0,1-.183-.493c-.043-.779.786.04.979.23A11.481,11.481,0,0,1,183.392,243.6Z" transform="translate(-126.099 -176.383)" fill="#fff"/>
    <path id="Path_178" data-name="Path 178" d="M290.125,249.87v3a4.787,4.787,0,0,1-4.787,4.79H244.773a4.79,4.79,0,0,1-4.773-4.8v-3Z" transform="translate(-165.223 -181.799)" fill="#24b8fe" opacity="0.41"/>
    <path id="Path_179" data-name="Path 179" d="M149.724,282.1a2.722,2.722,0,0,1-1.286.586,6.019,6.019,0,0,1-2.7-.38,52.474,52.474,0,0,1-8.124-3.284,5.388,5.388,0,0,1-2.258-1.732,5.574,5.574,0,0,1-.546-3.134,116.844,116.844,0,0,1,1.163-13.421c.28-1.969.256-5.016,1.436-6.9a8.481,8.481,0,0,1,1.019.366,2.132,2.132,0,0,1,1.1.849,2.547,2.547,0,0,1,.03,1.772A128,128,0,0,0,137,274a1.356,1.356,0,0,0,.576,1.436,30.276,30.276,0,0,0,3.621,2.8c2,1.332,4.424,2.858,6.8,3.3A3.312,3.312,0,0,1,149.724,282.1Z" transform="translate(-95.066 -184.453)" fill="#d9dbe2" opacity="0.43"/>
    <rect id="Rectangle_45" data-name="Rectangle 45" width="53.426" height="18.58" rx="9.29" transform="translate(114.466 20.041)" fill="#fff"/>
    <path id="Path_180" data-name="Path 180" d="M431.727,120.679l-4.817-6.839h4.817Z" transform="translate(-284.707 -75.921)" fill="#fff"/>
  </g>
</svg>
