<svg xmlns="http://www.w3.org/2000/svg" xmlns:xlink="http://www.w3.org/1999/xlink" width="192.054" height="185.125" viewBox="0 0 192.054 185.125">
  <defs>
    <linearGradient id="linear-gradient" x1="1.545" y1="-1.246" x2="-1.02" y2="-3.77" gradientUnits="objectBoundingBox">
      <stop offset="0.01"/>
      <stop offset="0.08" stop-opacity="0.69"/>
      <stop offset="0.21" stop-opacity="0.322"/>
      <stop offset="1" stop-opacity="0"/>
    </linearGradient>
  </defs>
  <g id="instagram_post_" transform="translate(0.002 0.003)">
    <path id="Path_84" data-name="Path 84" d="M226.4,188.622c-8.019,10.815-21.809,16.142-35.252,16.966s-26.778-2.306-39.858-5.517c-11.7-2.882-24.489-6.791-36.67-6.186-8.826.432-17.254,3.6-26.259,3.568-15.052-.052-27.193-6.647-35.1-18.286a50.644,50.644,0,0,1-4.445-8.071.392.392,0,0,0-.063-.144C39.027,148.81,40.2,121.594,53.589,101.2c4.451-6.785,10.025-12.792,14.222-19.733,3.77-6.238,6.341-13.115,9.8-19.52C89.677,39.686,113.267,24.6,138.247,21.291a75.428,75.428,0,0,1,26.4,1.067c22.99,5.154,43.64,21.6,51.884,43.681,5.373,14.412,5.419,30.208,8.244,45.341,2.444,13.1,7,25.763,8.861,38.953S234.342,177.917,226.4,188.622Z" transform="translate(-42.36 -20.6)" fill="#24b8fe" opacity="0.18"/>
    <path id="Path_85" data-name="Path 85" d="M102.86,282.63c-14.118,5.58-29.568,5.459-44.845,4.07a50.646,50.646,0,0,1-4.445-8.071,265.625,265.625,0,0,1,37.939-3.459c2.969-.058,12.193-1.666,14.873.329C110.106,278.277,106.463,281.206,102.86,282.63Z" transform="translate(-47.108 -128.132)" fill="#24b8fe" opacity="0.18"/>
    <path id="Path_86" data-name="Path 86" d="M223.148,197.416,136.04,163.962V60.99l87.108,33.454Z" transform="translate(-57.615 -25.831)" fill="#24b8fe" opacity="0.18"/>
    <path id="Path_87" data-name="Path 87" d="M120.653,223.67s6.215,11.743,7.373,15.433,1.061,14.562,1.061,14.562H125.7s0-10.953-1.435-12.815-9.437-11.282-9.437-11.282Z" transform="translate(-73.053 -106.604)" fill="#473f47"/>
    <path id="Path_88" data-name="Path 88" d="M114.462,225.405s-3.77,15.231-5.719,18.615-7.281,9.564-7.281,9.564l-2.882-1.539s7.385-9.691,6.976-12.533S104.1,225.82,104.1,225.82,109.308,223,114.462,225.405Z" transform="translate(-66.171 -106.926)" fill="#473f47"/>
    <circle id="Ellipse_5" data-name="Ellipse 5" cx="11.864" cy="11.864" r="11.864" transform="translate(43.801 90.583)" fill="#24b8fe"/>
    <path id="Path_89" data-name="Path 89" d="M102.432,187.989a4.28,4.28,0,0,0-1.885,5.229c1.118,3.7,4.652,12,4.272,14.458s0,2.537,0,2.537,7.892,2.848,10.377-.386c0,0-4.7-16.609-5.7-18.69S105.649,186.767,102.432,187.989Z" transform="translate(-66.898 -91.347)" fill="#fff"/>
    <path id="Path_90" data-name="Path 90" d="M106.511,200.321a11.23,11.23,0,0,0,1.222,2.577,7.385,7.385,0,0,0,.928,1.337c1.015,1.09,2.537,1.5,3.9,2.11a2.162,2.162,0,0,1,.663.4,2.56,2.56,0,0,1,.473.778,7.5,7.5,0,0,0,3.349,3.984c-.663-2.548-1.326-5.09-2.1-7.6a4.26,4.26,0,0,0-.542-1.268,4.5,4.5,0,0,0-1.055-.957c-1.729-1.251-3.384-2.519-5.1-3.747-.576-.415-1.2-.888-1.695-.133A3.528,3.528,0,0,0,106.511,200.321Z" transform="translate(-69.438 -95.477)" fill="url(#linear-gradient)"/>
    <path id="Path_91" data-name="Path 91" d="M107.929,174.3c.173.173.386.352.386.576a1.044,1.044,0,0,1-.219.5c-.519.888-.046,2.15-.669,2.957a1.73,1.73,0,0,1-.905.576,3.16,3.16,0,0,0-1.02.329,1.274,1.274,0,0,0-.38.894c-.035.4.035.8,0,1.2a.79.79,0,0,1-.334.7.738.738,0,0,1-.352.069,8.7,8.7,0,0,1-2.081-.161.657.657,0,0,1-.271-.11.576.576,0,0,1-.15-.329c-.294-1.332-.576-2.669-.894-4a9.495,9.495,0,0,0-.646-1.389,4.67,4.67,0,0,1-.236-2.087,4.036,4.036,0,0,1,.53-1.493,3.056,3.056,0,0,1,.945-1.084,3.678,3.678,0,0,1,.945-.392c1.153-.352,2.934-.824,3.926.156C107.335,172.024,107.07,173.442,107.929,174.3Z" transform="translate(-66.826 -84.139)" fill="#fcbdba"/>
    <path id="Path_92" data-name="Path 92" d="M107.1,174.763c-.242-.15-1.038.167-1.326.161-.94-.029-1.729.432-2.467-.133a3.592,3.592,0,0,1-1.078-1.983.426.426,0,0,1,0-.121.317.317,0,0,1,.058-.144c.352-.507,1.061-.576,1.66-.709a5.938,5.938,0,0,0,2.773-1.729,1.061,1.061,0,0,0,.375-.657.928.928,0,0,0-.444-.721,3.367,3.367,0,0,0-2.571-.45,26.207,26.207,0,0,0-2.571.738c-.813.231-1.655.369-2.467.628a1.852,1.852,0,0,0-.484.225,1.424,1.424,0,0,0-.432.576,2.127,2.127,0,0,0,0,1.885.761.761,0,0,1,.127.288.87.87,0,0,1-.035.3,3.821,3.821,0,0,0,.669,2.56l1.153,2.093a1.885,1.885,0,0,0,.5.651.64.64,0,0,0,.761,0c.231-.2.242-.576.519-.738a.657.657,0,0,1,.576.069c.5.236.905.611,1.384.876a3.661,3.661,0,0,0,2.738.34,1.92,1.92,0,0,0,.669-.311,1.464,1.464,0,0,0,.346-1.516C107.439,176.383,107.617,175.08,107.1,174.763Z" transform="translate(-65.886 -83.108)" fill="#473f47"/>
    <path id="Path_93" data-name="Path 93" d="M104.961,195.591s3.234,8.307,16.049,9.9l.461-1.793s-8.561-3.384-10.377-6.82a22.373,22.373,0,0,1-1.372-3,2.825,2.825,0,0,0-3.568-1.8c-.127.046-.254.1-.375.156C104.858,192.738,104.281,193.7,104.961,195.591Z" transform="translate(-68.747 -93.162)" fill="#fff"/>
    <path id="Path_94" data-name="Path 94" d="M135.376,211.695a.917.917,0,0,1-.271.605,7.546,7.546,0,0,0,2.571.473.628.628,0,0,1,.45.127c.167.184.035.484-.127.674a4.035,4.035,0,0,1-2.583,1.326,2.79,2.79,0,0,1-1.9-.306,3.626,3.626,0,0,1-.992-1.1.525.525,0,0,1,0-.68c.1-.19.248-.576.461-.669a1.73,1.73,0,0,1,.686,0A5.06,5.06,0,0,1,135.376,211.695Z" transform="translate(-80.495 -101.529)" fill="#fcbdba"/>
    <path id="Path_95" data-name="Path 95" d="M94.313,274.166a.663.663,0,0,0-.213.444.634.634,0,0,0,.213.363,15.681,15.681,0,0,0,4.917,3.6c.507.242,1.211.409,1.557-.035s0-1.113-.311-1.626a5.35,5.35,0,0,1-.715-2.225,2.03,2.03,0,0,0-.161-.784,4.515,4.515,0,0,0-2.882-1.36C95.72,272.523,94.913,273.48,94.313,274.166Z" transform="translate(-64.273 -127.3)" fill="#24b8fe"/>
    <path id="Path_96" data-name="Path 96" d="M131.706,277.647a.5.5,0,0,0,.4.7,15.784,15.784,0,0,0,6.024.669c.576-.046,1.257-.248,1.332-.8s-.576-.963-1.078-1.257a5.465,5.465,0,0,1-1.729-1.58,2.023,2.023,0,0,0-.53-.577,4.492,4.492,0,0,0-3.171.254C132.115,275.52,131.89,276.754,131.706,277.647Z" transform="translate(-80.18 -128.176)" fill="#24b8fe"/>
    <path id="Path_97" data-name="Path 97" d="M132.685,195.351a1.055,1.055,0,0,0,.225.282,1.488,1.488,0,0,0,.479.236,15.386,15.386,0,0,0,6.341,1.124,1.568,1.568,0,0,0,.663-.167.611.611,0,0,0,.329-.577,1.58,1.58,0,0,1-.046-.288c0-.369.576-.427.744-.767a.577.577,0,0,0-.179-.623c-.161-.167-.363-.288-.519-.461a1.856,1.856,0,0,0,.657-.611.738.738,0,0,0-.052-.842c-.161-.173-.45-.265-.467-.5s.2-.357.34-.525a.986.986,0,0,0-.236-1.314,2.1,2.1,0,0,0-1.407-.363,10.584,10.584,0,0,1-1.482.069.432.432,0,0,1-.323-.133c-.1-.133-.04-.323,0-.478a3.528,3.528,0,0,0-.225-3.159,1.067,1.067,0,0,0-1.038-.548.922.922,0,0,0-.576.548,3.844,3.844,0,0,0-.184.8c-.288,1.631-1.061,3.372-2.71,3.984-.283.1-.53.046-.721.306a1.487,1.487,0,0,0-.173.784,6.676,6.676,0,0,0,.484,3.055Z" transform="translate(-80.369 -90.523)" fill="#fff"/>
    <rect id="Rectangle_39" data-name="Rectangle 39" width="1.77" height="4.693" rx="0.885" transform="translate(49.37 100.481)" fill="#fff"/>
    <path id="Path_98" data-name="Path 98" d="M209.178,169.766,122.07,136.312V16.61l87.108,33.459Z" transform="translate(-51.699 -7.036)" fill="#fff"/>
    <path id="Path_99" data-name="Path 99" d="M201.174,152.878,139.15,128.741V65.05l62.024,24.138Z" transform="translate(-58.932 -27.551)" fill="#24b8fe" opacity="0.42"/>
    <path id="Path_100" data-name="Path 100" d="M142.43,153.217l11.691-11.046,10.066,9.622L180.265,139.9l20.46,34.359v6.722l-58.295-23.3Z" transform="translate(-60.321 -59.25)" fill="#24b8fe"/>
    <ellipse id="Ellipse_6" data-name="Ellipse 6" cx="4.548" cy="6.658" rx="4.548" ry="6.658" transform="translate(91.794 53.312)" fill="#24b8fe"/>
    <ellipse id="Ellipse_7" data-name="Ellipse 7" cx="3.251" cy="4.762" rx="3.251" ry="4.762" transform="translate(81.549 25.635)" fill="#24b8fe"/>
    <path id="Path_101" data-name="Path 101" d="M217.166,81.5l-16.176-6.6a2.369,2.369,0,0,1-1.366-2.041h0a.928.928,0,0,1,1.366-.945l16.2,6.6a2.369,2.369,0,0,1,1.343,2.047h0a.917.917,0,0,1-.784,1.043A.934.934,0,0,1,217.166,81.5Z" transform="translate(-108.959 -42.285)" fill="#24b8fe" opacity="0.42"/>
    <path id="Path_102" data-name="Path 102" d="M216.524,89.67l-15.565-6.341a2.018,2.018,0,0,1-1.309-1.557h0c0-.576.576-.784,1.309-.49l15.565,6.341a2.018,2.018,0,0,1,1.314,1.557h0C217.838,89.745,217.25,89.964,216.524,89.67Z" transform="translate(-108.975 -46.245)" fill="#24b8fe" opacity="0.42"/>
    <path id="Path_103" data-name="Path 103" d="M199.318,219.142,139.15,195.489v-1.8l60.168,23.648Z" transform="translate(-58.932 -82.031)" fill="#24b8fe" opacity="0.42"/>
    <path id="Path_104" data-name="Path 104" d="M199.318,225.412,139.15,201.764v-1.8l60.168,23.653Z" transform="translate(-58.932 -84.686)" fill="#24b8fe" opacity="0.42"/>
    <path id="Path_105" data-name="Path 105" d="M199.318,231.692,139.15,208.044v-1.8l60.168,23.648Z" transform="translate(-58.932 -87.346)" fill="#24b8fe" opacity="0.42"/>
    <path id="Path_106" data-name="Path 106" d="M199.318,237.966,139.15,214.319v-1.8l60.168,23.648Z" transform="translate(-58.932 -90.006)" fill="#24b8fe" opacity="0.42"/>
    <path id="Path_107" data-name="Path 107" d="M199.318,244.242,139.15,220.594v-1.8l60.168,23.653Z" transform="translate(-58.932 -92.661)" fill="#24b8fe" opacity="0.42"/>
    <path id="Path_108" data-name="Path 108" d="M184.607,204.673s-.922-2.352-1.96-1.153,1.9,4.347,1.9,4.347,2.116-.945,2.133-2.191S185.12,203.076,184.607,204.673Z" transform="translate(-101.68 -97.925)" fill="#24b8fe"/>
    <path id="Path_109" data-name="Path 109" d="M196.116,212.19a.167.167,0,0,1-.081-.046l-.7-.663a2.024,2.024,0,0,1-1.2,0,3.361,3.361,0,0,1-2.306-3.009,1.655,1.655,0,0,1,1.533-1.776,1.608,1.608,0,0,1,.772.127,3.349,3.349,0,0,1,2.277,3.009,1.8,1.8,0,0,1-.45,1.257l.3.888a.2.2,0,0,1-.035.219A.121.121,0,0,1,196.116,212.19Zm-1.983-5a1.4,1.4,0,0,0-1.839.732,1.337,1.337,0,0,0-.115.617,2.831,2.831,0,0,0,1.954,2.525,1.689,1.689,0,0,0,1.118,0,.144.144,0,0,1,.156.046l.363.346-.144-.432a.219.219,0,0,1,.029-.213,1.412,1.412,0,0,0,.432-1.084,2.831,2.831,0,0,0-1.954-2.537Z" transform="translate(-105.66 -99.413)" fill="#24b8fe"/>
    <path id="Path_110" data-name="Path 110" d="M204.471,212.726a.231.231,0,0,1-.109-.086l-1.482-2.121a.248.248,0,0,1-.04-.236.121.121,0,0,1,.144-.075h0l4.191,1.522a.236.236,0,0,1,.15.208.15.15,0,0,1-.092.184l-2.709.576Zm-1.049-1.966,1.084,1.545,1.972-.438Z" transform="translate(-110.32 -100.9)" fill="#24b8fe"/>
    <path id="Path_111" data-name="Path 111" d="M205.993,216.489h-.035a.259.259,0,0,1-.127-.19l-.427-2.623a.156.156,0,0,1,.092-.19l2.71-.576a.179.179,0,0,1,.184.11.231.231,0,0,1,0,.242l-2.306,3.223a.1.1,0,0,1-.092.006Zm-.248-2.64.329,1.989,1.729-2.45Z" transform="translate(-111.409 -102.046)" fill="#24b8fe"/>
  </g>
</svg>
