<svg xmlns="http://www.w3.org/2000/svg" xmlns:xlink="http://www.w3.org/1999/xlink" width="274.682" height="184.646" viewBox="0 0 274.682 184.646">
  <defs>
    <linearGradient id="linear-gradient" x1="0.408" y1="-1.013" x2="0.52" y2="0.824" gradientUnits="objectBoundingBox">
      <stop offset="0" stop-color="#fff" stop-opacity="0"/>
      <stop offset="0.95" stop-color="#fff"/>
    </linearGradient>
    <linearGradient id="linear-gradient-2" x1="-0.001" y1="0.501" x2="1" y2="0.501" gradientUnits="objectBoundingBox">
      <stop offset="0" stop-color="#010101" stop-opacity="0"/>
      <stop offset="0.95" stop-color="#010101"/>
    </linearGradient>
    <linearGradient id="linear-gradient-3" x1="0.54" y1="0.463" x2="-1.15" y2="1.493" xlink:href="#linear-gradient-2"/>
    <linearGradient id="linear-gradient-4" x1="0.5" y1="0.91" x2="0.5" y2="-0.438" xlink:href="#linear-gradient-2"/>
    <linearGradient id="linear-gradient-5" x1="0.42" y1="-0.723" x2="0.511" y2="0.766" xlink:href="#linear-gradient"/>
    <linearGradient id="linear-gradient-6" x1="0.504" y1="0.162" x2="0.485" y2="3.249" xlink:href="#linear-gradient-2"/>
    <linearGradient id="linear-gradient-7" x1="0.003" y1="0.5" x2="1.002" y2="0.5" gradientUnits="objectBoundingBox">
      <stop offset="0" stop-color="#e4c5d5"/>
      <stop offset="0.42" stop-color="#e9d3cf"/>
      <stop offset="1" stop-color="#efe8ca"/>
    </linearGradient>
    <linearGradient id="linear-gradient-8" x1="0" y1="0.5" x2="1.001" y2="0.5" xlink:href="#linear-gradient-7"/>
    <linearGradient id="linear-gradient-9" x1="-0.186" y1="0.5" x2="0.815" y2="0.5" xlink:href="#linear-gradient-2"/>
    <linearGradient id="linear-gradient-10" x1="0.637" y1="0.351" x2="-0.29" y2="2.195" xlink:href="#linear-gradient-2"/>
    <linearGradient id="linear-gradient-11" x1="-0.001" y1="0.5" x2="0.997" y2="0.5" xlink:href="#linear-gradient-7"/>
    <linearGradient id="linear-gradient-12" x1="0.34" y1="0.602" x2="1.344" y2="0.003" gradientUnits="objectBoundingBox">
      <stop offset="0" stop-color="#010101" stop-opacity="0"/>
      <stop offset="0.47" stop-color="#010101" stop-opacity="0.471"/>
      <stop offset="0.95" stop-color="#010101"/>
    </linearGradient>
    <linearGradient id="linear-gradient-13" x1="-0.002" y1="0.497" x2="0.999" y2="0.497" xlink:href="#linear-gradient-7"/>
    <linearGradient id="linear-gradient-14" x1="0.88" y1="0.282" x2="0.296" y2="0.617" xlink:href="#linear-gradient-2"/>
    <linearGradient id="linear-gradient-15" x1="0.606" y1="0.505" x2="-0.849" y2="0.66" xlink:href="#linear-gradient-2"/>
    <linearGradient id="linear-gradient-16" x1="0.822" y1="0.319" x2="-0.532" y2="1.283" xlink:href="#linear-gradient-2"/>
    <linearGradient id="linear-gradient-17" x1="0.593" y1="0.36" x2="1.053" y2="1.148" xlink:href="#linear-gradient-2"/>
    <linearGradient id="linear-gradient-18" x1="0.787" y1="0.506" x2="-0.895" y2="0.621" xlink:href="#linear-gradient-2"/>
    <linearGradient id="linear-gradient-19" x1="0.519" y1="-0.139" x2="-0.026" y2="3.866" xlink:href="#linear-gradient-2"/>
  </defs>
  <g id="startup" transform="translate(-0.008 0.022)">
    <path id="Path_3" data-name="Path 3" d="M87.521,75.47a66.81,66.81,0,0,0-7.615-1.107,54.356,54.356,0,0,0-34.95,9.3c-17.162,11.787-24.6,33.463-28.9,52.978-4.853,21.908-4.341,45.414,4.489,66.281C32.621,231.462,62.2,253.411,93.1,251.038c13.452-1.025,26.258-6.349,39.669-7.866,15.4-1.742,30.881,1.578,46.352,2.562a154.833,154.833,0,0,0,68.326-11.213c12.74-5.222,25.238-12.591,32.684-24.173,11.136-17.336,8.573-40.284,1.225-59.547-3.9-10.249-8.988-20.017-13.836-29.856s-8.056-20.375-12.565-30.235C247.4,74.2,226.565,64.453,209.07,66.959c-15.42,2.2-28.662,12.268-43.836,15.784-7.205,1.665-14.672,1.814-22.066,1.64a180.547,180.547,0,0,1-37.322-4.376C99.722,78.576,93.675,76.7,87.521,75.47Z" transform="translate(-12.99 -66.59)" fill="#24b8fe" opacity="0.24"/>
    <path id="Path_4" data-name="Path 4" d="M321.037,366.883c-2.813.143-5.878.389-7.917,2.327A304.058,304.058,0,0,0,387,368.149c-1.537-2.854-5.417-3.27-8.671-3.341-9.224-.2-20.042-2.793-29.133-1.291C339.788,365.074,330.579,366.883,321.037,366.883Z" transform="translate(-159.312 -211.138)" fill="#24b8fe" opacity="0.24"/>
    <path id="Path_5" data-name="Path 5" d="M97.567,369.683c-1.537.036-3.685.743-3.367,2.265.22,1.025,1.491,1.414,2.562,1.578,25.73,4.059,52.081,3.628,77.847-.231-.323-1.619-6.554-.958-9.224-1.4-3.28-.548-6.559-1.122-9.819-1.794a69.5,69.5,0,0,0-16.834-1.425Z" transform="translate(-52.564 -213.856)" fill="#24b8fe" opacity="0.24"/>
    <rect id="Rectangle_4" data-name="Rectangle 4" width="124.23" height="80.989" rx="25.38" transform="translate(68.151 26.77)" fill="#24b8fe"/>
    <rect id="Rectangle_5" data-name="Rectangle 5" width="124.23" height="80.989" rx="25.38" transform="translate(67.464 26.77)" fill="url(#linear-gradient)"/>
    <path id="Path_6" data-name="Path 6" d="M225.031,211.619a14.216,14.216,0,1,1-14.959-14.154,5.481,5.481,0,0,1,.764-.036,14.2,14.2,0,0,1,14.2,14.19Z" transform="translate(-102.504 -130.39)" fill="#24b8fe" opacity="0.24"/>
    <path id="Path_7" data-name="Path 7" d="M216.941,149.427c-.113.389-1.932.876-2.4,1.174a9.092,9.092,0,0,0-2.091,2.05,38.148,38.148,0,0,1-3.3,4.4,5.083,5.083,0,0,0-.994,1.127,9.534,9.534,0,0,0-.564,2.014,3.551,3.551,0,0,1-3.126,2.439,3.521,3.521,0,0,1-2.716,6.149,10.869,10.869,0,0,1,1.23,4.684,14.169,14.169,0,0,0-10.459,5.447,3.285,3.285,0,0,1-2.132-1.578c-1.133,1.025-2.947.369-4.136-.569a11.521,11.521,0,0,1-2.639-14.661c1.409-2.306,4.433-4.1,6.739-2.716a2.806,2.806,0,0,1,3.075-.974,8.061,8.061,0,0,1,2.947,1.814,3.573,3.573,0,0,1,2.911-3.674,5.16,5.16,0,0,1,4.612,1.8c-.471-.548,8.84-8.568,9.819-9.224C214.266,148.781,217.586,147.218,216.941,149.427Z" transform="translate(-95.413 -106.422)" fill="#24b8fe" opacity="0.45"/>
    <path id="Path_8" data-name="Path 8" d="M212.521,182.837c-3.551,4.571-8.04,9.373-13.836,9.475a8.116,8.116,0,0,0-3.152.287c-1.891.789-2.439,3.157-2.737,5.191-.743,5.125-1.481,10.326-.512,15.374.753,3.936,2.526,7.769,2.152,11.756a2.437,2.437,0,0,1-.9,1.927,2.67,2.67,0,0,1-1.594.19l-8.876-.779a3.818,3.818,0,0,1-2.091-.6,3.669,3.669,0,0,1-1.025-1.747c-3.587-10.2-2.726-21.349-1.835-32.121a24.51,24.51,0,0,1,1.271-7.005,8.317,8.317,0,0,1,4.761-5.012c5.125-1.737,10.08,3.546,15.5,3.756,5.637.215,9.578-4.745,13.611-7.907,1.348-1.061,4.658-4.243,4.955-.989C218.425,176.795,213.813,181.2,212.521,182.837Z" transform="translate(-93.11 -118.58)" fill="#24b8fe" opacity="0.24"/>
    <circle id="Ellipse_1" data-name="Ellipse 1" cx="14.2" cy="14.2" r="14.2" transform="translate(111.028 66.527)" fill="#24b8fe" opacity="0.24"/>
    <path id="Path_9" data-name="Path 9" d="M143.71,196.163a8.1,8.1,0,0,0-.851,4.3,7.4,7.4,0,0,0,1.122,2.562,50.915,50.915,0,0,0,5.273,7.149,4.3,4.3,0,0,0,2.024,1.507,78.349,78.349,0,0,0,.538-16.4,3.075,3.075,0,0,0-.333-1.419A3.2,3.2,0,0,0,150,192.781c-1.358-.635-2.711-1.379-4.1-1.891C145.493,191.4,144.13,196.163,143.71,196.163Z" transform="translate(-76.271 -127.202)" fill="#c8a59c"/>
    <path id="Path_10" data-name="Path 10" d="M248.679,167.152l-5.668-.928s-.584-1.2.307-1.614l8.968,1.537Z" transform="translate(-125.04 -114.39)" fill="#606161"/>
    <path id="Path_11" data-name="Path 11" d="M215.549,178.647a9.957,9.957,0,0,0,2.588.036c.333-.133,10.029-7.83,13.744-9.737a11.12,11.12,0,0,1,5.714-1.665c.933-.062,2.05-.031,2.562.764a1.691,1.691,0,0,1-.118,1.783A3.685,3.685,0,0,1,238.594,171a9.685,9.685,0,0,1-3.818,1.071,3.325,3.325,0,0,0-1.025.154,2.875,2.875,0,0,0-1.071.917q-4.125,4.884-8.635,9.414c-1.6,1.609-3.418,3.269-5.678,3.526a8.071,8.071,0,0,1-2.429-.159,17.086,17.086,0,0,1-4.479-1.537,2.137,2.137,0,0,1-.794-.594,1.988,1.988,0,0,1-.292-1.215,6.242,6.242,0,0,1,1.45-3.864C213.013,177.3,214.027,178.314,215.549,178.647Z" transform="translate(-109.215 -115.682)" fill="#c8a59c"/>
    <path id="Path_12" data-name="Path 12" d="M183.3,145.278a15.014,15.014,0,0,1-.133,3.526,3.342,3.342,0,0,1-2.05,2.757c-.687.179-1.491,0-2.05.466-.42.343-.538.922-.82,1.389a2.921,2.921,0,0,1-2.429,1.24,8.394,8.394,0,0,1-2.778-.548,1.5,1.5,0,0,1-.63-.318,1.537,1.537,0,0,1-.318-1.066q-.159-4.382-.123-8.773a5.955,5.955,0,0,1,.389-2.48,5.007,5.007,0,0,1,2.347-2.1,14.7,14.7,0,0,1,4.448-1.455c1.43-.231,3.808-.1,4.069,1.747a15.706,15.706,0,0,1-.092,2.019C183.158,142.869,183.255,144.069,183.3,145.278Z" transform="translate(-90.491 -101.335)" fill="#c8a59c"/>
    <path id="Path_13" data-name="Path 13" d="M180.738,131.76a2.66,2.66,0,0,1,.287,2.357,4.546,4.546,0,0,1-1.435,1.978,5.125,5.125,0,0,0-1.025.984c-.62.928-.323,2.168-.512,3.275a.207.207,0,0,1-.143.21c-.092.015-.159-.061-.22-.133a1.23,1.23,0,0,0-2.152.943c.072.666.671,1.215.646,1.886a1.957,1.957,0,0,1-.471,1.025,1.722,1.722,0,0,1-.784.676,1.876,1.876,0,0,1-.81,0l-5.535-.641a3.981,3.981,0,0,1-.917-.179,2.8,2.8,0,0,1-1.6-1.855,8.834,8.834,0,0,1-.266-2.521,11.306,11.306,0,0,0-.7-4.581,1.25,1.25,0,0,1-.164-.666,1.025,1.025,0,0,1,.22-.42c.876-1.133,2.209-1.911,2.808-3.208a3.869,3.869,0,0,1,.354-.7,2.408,2.408,0,0,1,2.122-.579l3.418.19a16.2,16.2,0,0,0,2.142-.3,3.905,3.905,0,0,1,1.609.348A7.8,7.8,0,0,1,180.738,131.76Z" transform="translate(-87.062 -97.272)" fill="#606161"/>
    <path id="Path_14" data-name="Path 14" d="M180.738,131.76a2.66,2.66,0,0,1,.287,2.357,4.546,4.546,0,0,1-1.435,1.978,5.125,5.125,0,0,0-1.025.984c-.62.928-.323,2.168-.512,3.275a.207.207,0,0,1-.143.21c-.092.015-.159-.061-.22-.133a1.23,1.23,0,0,0-2.152.943c.072.666.671,1.215.646,1.886a1.957,1.957,0,0,1-.471,1.025,1.722,1.722,0,0,1-.784.676,1.876,1.876,0,0,1-.81,0l-5.535-.641a3.981,3.981,0,0,1-.917-.179,2.8,2.8,0,0,1-1.6-1.855,8.834,8.834,0,0,1-.266-2.521,11.306,11.306,0,0,0-.7-4.581,1.25,1.25,0,0,1-.164-.666,1.025,1.025,0,0,1,.22-.42c.876-1.133,2.209-1.911,2.808-3.208a3.869,3.869,0,0,1,.354-.7,2.408,2.408,0,0,1,2.122-.579l3.418.19a16.2,16.2,0,0,0,2.142-.3,3.905,3.905,0,0,1,1.609.348A7.8,7.8,0,0,1,180.738,131.76Z" transform="translate(-87.062 -97.272)" fill="url(#linear-gradient-2)"/>
    <path id="Path_15" data-name="Path 15" d="M159.708,167.76a47.64,47.64,0,0,0,6.3.348,17.916,17.916,0,0,1,9.137,2.414,23.384,23.384,0,0,1,3.049,2.506l4.612,4.259a1.086,1.086,0,0,1,.451,1.153,9.086,9.086,0,0,1-3.034,5.842.707.707,0,0,1-.374.21.82.82,0,0,1-.4-.1l-5.125-2.378a8.829,8.829,0,0,0,0,3.049c1.317,7.395,0,15.1-.646,22.579a2.311,2.311,0,0,1-.231.984,2.147,2.147,0,0,1-.851.733c-2.885,1.614-6.354,1.681-9.66,1.66-3.075,0-6.329-.154-8.8-1.947a2.445,2.445,0,0,1-.733-.753,2.88,2.88,0,0,1-.236-1.338l-.287-19.5a3.7,3.7,0,0,0-.19-1.363c-.456-1.138-4.7-2.911-5.432-6.39C147.778,176.082,156.771,168.3,159.708,167.76Z" transform="translate(-78.448 -115.925)" fill="#24b8fe"/>
    <path id="Path_16" data-name="Path 16" d="M159.708,167.76a47.64,47.64,0,0,0,6.3.348,17.916,17.916,0,0,1,9.137,2.414,23.384,23.384,0,0,1,3.049,2.506l4.612,4.259a1.086,1.086,0,0,1,.451,1.153,9.086,9.086,0,0,1-3.034,5.842.707.707,0,0,1-.374.21.82.82,0,0,1-.4-.1l-5.125-2.378a8.829,8.829,0,0,0,0,3.049c1.317,7.395,0,15.1-.646,22.579a2.311,2.311,0,0,1-.231.984,2.147,2.147,0,0,1-.851.733c-2.885,1.614-6.354,1.681-9.66,1.66-3.075,0-6.329-.154-8.8-1.947a2.445,2.445,0,0,1-.733-.753,2.88,2.88,0,0,1-.236-1.338l-.287-19.5a3.7,3.7,0,0,0-.19-1.363c-.456-1.138-4.7-2.911-5.432-6.39C147.778,176.082,156.771,168.3,159.708,167.76Z" transform="translate(-78.448 -115.925)" fill="url(#linear-gradient-3)"/>
    <path id="Path_17" data-name="Path 17" d="M169.8,247.187s4.228,22.548,4.228,25.566-5.494,32.018-5.494,32.018-4.812.277-6.047-1.373l2.337-27.75-3.9-11.92-2.014,15.62-12.781,24.736-6.313-3.838,12.4-26.648s-6.216-13.134-2.424-26.7Z" transform="translate(-74.816 -154.51)" fill="#606161"/>
    <path id="Path_18" data-name="Path 18" d="M169.8,247.187s4.228,22.548,4.228,25.566-5.494,32.018-5.494,32.018-4.812.277-6.047-1.373l2.337-27.75-3.9-11.92-2.014,15.62-12.781,24.736-6.313-3.838,12.4-26.648s-6.216-13.134-2.424-26.7Z" transform="translate(-74.816 -154.51)" fill="url(#linear-gradient-4)"/>
    <path id="Path_19" data-name="Path 19" d="M184.218,366.519a.456.456,0,0,0,.036.22.415.415,0,0,0,.246.174,8.655,8.655,0,0,0,2.839.4q4.658.123,9.327.21a3.848,3.848,0,0,0-2.66-3.244,36.121,36.121,0,0,0-4.325-1.025,1.286,1.286,0,0,1-.758-.42,1.353,1.353,0,0,1-.164-.712l-.113-2.936a1.322,1.322,0,0,0-.323-.984,1.3,1.3,0,0,0-.451-.21c-.569-.169-2.024-.779-2.562-.415s-.538,1.855-.62,2.47A48.682,48.682,0,0,0,184.218,366.519Z" transform="translate(-96.466 -208.416)" fill="#606161"/>
    <path id="Path_20" data-name="Path 20" d="M135.414,358.139a.589.589,0,0,0,.113.851l4.5,5.125a1.435,1.435,0,0,0,.43.379,1.537,1.537,0,0,0,.625.118c1.865.077,3.741.072,5.606,0a4.151,4.151,0,0,0-2.157-2.88,10.1,10.1,0,0,1-2.132-1.025,4.827,4.827,0,0,1-1.2-1.758,1.87,1.87,0,0,1,.087-2.286l.928-1.537a1.343,1.343,0,0,0,.256-1.2,1.291,1.291,0,0,0-.569-.512,8.993,8.993,0,0,0-2.275-1.291c-.738-.138-1.025.553-1.4,1.174A55.341,55.341,0,0,0,135.414,358.139Z" transform="translate(-72.608 -205.802)" fill="#606161"/>
    <rect id="Rectangle_6" data-name="Rectangle 6" width="36.692" height="2.475" rx="1.238" transform="translate(144.42 44.312)" fill="#24b8fe" opacity="0.24"/>
    <rect id="Rectangle_7" data-name="Rectangle 7" width="36.692" height="2.475" rx="1.238" transform="translate(144.01 48.57)" fill="#24b8fe" opacity="0.24"/>
    <rect id="Rectangle_8" data-name="Rectangle 8" width="36.692" height="2.475" rx="1.238" transform="translate(143.594 52.834)" fill="#24b8fe" opacity="0.24"/>
    <rect id="Rectangle_9" data-name="Rectangle 9" width="36.692" height="2.475" rx="1.238" transform="translate(143.184 57.092)" fill="#24b8fe" opacity="0.24"/>
    <rect id="Rectangle_10" data-name="Rectangle 10" width="38.065" height="33.53" transform="translate(142.636 63.964)" fill="#24b8fe" opacity="0.24"/>
    <path id="Path_21" data-name="Path 21" d="M283.393,139.863l7.692,12.822,12.463-15.574,5.314,7.513,7.513-12.273V160.2H281.01v-15.02Z" transform="translate(-137 -64.537)" fill="#24b8fe" opacity="0.24"/>
    <path id="Path_22" data-name="Path 22" d="M352.683,186.9a7.309,7.309,0,0,0-6.8-1.414,15.084,15.084,0,0,0-6.149,3.7,11.433,11.433,0,0,0-2.711,3.305,12.577,12.577,0,0,0-.943,5.535,72.909,72.909,0,0,0,1.025,12.453,2.327,2.327,0,0,0,.384,1.1c.656.815,1.937.436,2.977.548a4.15,4.15,0,0,1,2.931,2.2,30.448,30.448,0,0,1,1.476,3.5,13.611,13.611,0,0,0,4.371,5.54c1.384,1.025,3.418,1.758,4.75.656a4.259,4.259,0,0,0,1.025-1.537c6.354-13.862,1.127-30.548,5.7-45.1.287-.912,2.378-5.186,1.025-5.827-1.025-.461-2.588,2.188-3.029,2.783a38.77,38.77,0,0,0-3.587,5.6C354.712,180.711,351.981,186.236,352.683,186.9Z" transform="translate(-170.506 -117.752)" fill="#24b8fe" opacity="0.24"/>
    <path id="Path_23" data-name="Path 23" d="M263.887,134.969a16.715,16.715,0,0,1-6.267,5.155c-4.586,2.419-9.019,3.008-9.916,1.307a1.855,1.855,0,0,1,.056-1.6,9.552,9.552,0,0,1,2.931-3.439,22.286,22.286,0,0,1,3.69-2.4,17.373,17.373,0,0,1,7.554-2.286Z" transform="translate(-127.344 -98.349)" fill="url(#linear-gradient-5)"/>
    <path id="Path_24" data-name="Path 24" d="M246.991,140.687a9.47,9.47,0,0,0-2.931,3.439c-1.092-1.291-4.1-2.265-4.1-2.265C242.44,140.062,246.053,140.533,246.991,140.687Z" transform="translate(-123.644 -102.643)" fill="#24b8fe" opacity="0.24"/>
    <path id="Path_25" data-name="Path 25" d="M251.067,156.613s4.018-2.05,4.745-5.663c0,0-3.413,1.363-5.032.738C250.78,151.688,251.856,153.23,251.067,156.613Z" transform="translate(-128.919 -107.73)" fill="#24b8fe" opacity="0.24"/>
    <path id="Path_26" data-name="Path 26" d="M277.612,134.7h0l-1.952-3.259h0s3.2-.512,3.633.061S277.828,134.443,277.612,134.7Z" transform="translate(-141.049 -98.115)" fill="#24b8fe" opacity="0.24"/>
    <circle id="Ellipse_2" data-name="Ellipse 2" cx="1.445" cy="1.445" r="1.445" transform="translate(125.044 38.172)" fill="#24b8fe" opacity="0.24"/>
    <circle id="Ellipse_3" data-name="Ellipse 3" cx="1.138" cy="1.138" r="1.138" transform="translate(128.359 36.779)" fill="#24b8fe" opacity="0.24"/>
    <circle id="Ellipse_4" data-name="Ellipse 4" cx="1.138" cy="1.138" r="1.138" transform="translate(131.214 35.333)" fill="#24b8fe" opacity="0.24"/>
    <path id="Path_27" data-name="Path 27" d="M153.1,194.93v-9.05s-4.243,2.019-4.976,3.849C148.12,189.729,152.112,194.448,153.1,194.93Z" transform="translate(-78.868 -124.76)" fill="url(#linear-gradient-6)"/>
    <path id="Path_28" data-name="Path 28" d="M370.958,302.579a4.453,4.453,0,0,0,.082,2.506C372.5,311.5,373.868,318,373.9,324.558a13.293,13.293,0,0,1-.81,5.294,10.09,10.09,0,0,1-2.936,3.695c-.466.389-1.025.9-.861,1.486a1.184,1.184,0,0,0,.436.589,2.644,2.644,0,0,0,2.844.272,5.315,5.315,0,0,0,1.307-1.138l3.433-3.736a2.1,2.1,0,0,0,.446-.635,2.291,2.291,0,0,0-.169-1.476c-1.4-4.4.466-9.1.7-13.708.215-4.289-1-8.507-2.2-12.632a3.658,3.658,0,0,0-.559-1.276,2.45,2.45,0,0,0-2.009-.8,7.124,7.124,0,0,0-2.168.538" transform="translate(-186.684 -180.635)" fill="url(#linear-gradient-7)"/>
    <path id="Path_29" data-name="Path 29" d="M386.287,301.81q.948,7.415,1.768,14.861c.569,5.2,1.086,10.541-.266,15.594-.277,1.025-.6,2.265.046,3.126a2.05,2.05,0,0,0,2.665.354,3.546,3.546,0,0,0,1.476-2.45,13.082,13.082,0,0,0,0-2.936c-.338-6.267,1.092-12.483,1.476-18.746a26.929,26.929,0,0,0-.328-7.062c-.482-2.357-1.655-5.75-3.864-7.057C386.42,295.8,386.062,300.027,386.287,301.81Z" transform="translate(-194.957 -178.985)" fill="url(#linear-gradient-8)"/>
    <path id="Path_30" data-name="Path 30" d="M365.89,363.576a1.286,1.286,0,0,0-.348.512.856.856,0,0,0,.482.9,2.214,2.214,0,0,0,1.066.179,6.488,6.488,0,0,0,3.91-1.179c1.5-1.163,2.2-3.193,3.838-4.151a.394.394,0,0,1,.174-.072c.451-.056.292.82.676,1.051s.7-.292.769-.692a5.931,5.931,0,0,0,0-2.168c-.051-.241-.149-.512-.389-.584s-.543.251-.692.512a6,6,0,0,1-1.87,2.188c-1.461.938-2.926.451-4.484.8C367.668,361.2,366.8,362.613,365.89,363.576Z" transform="translate(-184.866 -208.364)" fill="#24b8fe"/>
    <path id="Path_31" data-name="Path 31" d="M388.089,367.57a5.811,5.811,0,0,0,.164,1.788,1.963,1.963,0,0,0,1.143,1.312,2.229,2.229,0,0,0,2-.512,5.637,5.637,0,0,0,1.911-3.039,10.684,10.684,0,0,0,.225-3.633c-.041-.487-.159-1.056-.6-1.266a3.141,3.141,0,0,1-2.357,2.485,1.578,1.578,0,0,1-1.881-.969C388,364.67,388.109,366.407,388.089,367.57Z" transform="translate(-195.857 -210.733)" fill="#24b8fe"/>
    <path id="Path_32" data-name="Path 32" d="M367.3,253.6a65.547,65.547,0,0,0,.159,9.46l.512,7.733.548,8.435a4.289,4.289,0,0,0,.564,2.245,2.845,2.845,0,0,0,2.183.938,124.309,124.309,0,0,0,13.8.682,1.989,1.989,0,0,0,1.7-.579,2.9,2.9,0,0,0,.415-1.455c.266-2.7.318-5.422.589-8.117.436-4.407,1.455-8.712,1.881-13.1s.215-9.1-1.645-13a3.116,3.116,0,0,0-.861-1.215,2.665,2.665,0,0,0-1.353-.41,104.428,104.428,0,0,0-12.96-.589c-.753,0-2.291-.287-2.952.149-.579.379-1.025,1.932-1.286,2.624a23.629,23.629,0,0,0-1.291,6.2Z" transform="translate(-185.68 -153.359)" fill="#606161"/>
    <path id="Path_33" data-name="Path 33" d="M369.391,156.874a9.854,9.854,0,0,0-.456,5.96.764.764,0,0,0,.2.369.835.835,0,0,0,.3.149l.794.261a2.142,2.142,0,0,0,1.081.164.753.753,0,0,0,.656-.764l.313,1.117,4.259-.384a.743.743,0,0,0,.395-.118.7.7,0,0,0,.195-.512c.261-2.608.2-5.237.231-7.861a10.492,10.492,0,0,0-.512-4.2,3.259,3.259,0,0,0-3.336-2.106,2.935,2.935,0,0,0-2.316,2.649A36.573,36.573,0,0,1,369.391,156.874Z" transform="translate(-186.383 -106.735)" fill="#606161"/>
    <path id="Path_34" data-name="Path 34" d="M369.391,156.874a9.854,9.854,0,0,0-.456,5.96.764.764,0,0,0,.2.369.835.835,0,0,0,.3.149l.794.261a2.142,2.142,0,0,0,1.081.164.753.753,0,0,0,.656-.764l.313,1.117,4.259-.384a.743.743,0,0,0,.395-.118.7.7,0,0,0,.195-.512c.261-2.608.2-5.237.231-7.861a10.492,10.492,0,0,0-.512-4.2,3.259,3.259,0,0,0-3.336-2.106,2.935,2.935,0,0,0-2.316,2.649A36.573,36.573,0,0,1,369.391,156.874Z" transform="translate(-186.383 -106.735)" fill="url(#linear-gradient-9)"/>
    <path id="Path_35" data-name="Path 35" d="M390.434,183.763a16.378,16.378,0,0,1,1.174,6.4c.215,4.376,1.63,9.142-.2,13.124-2.5,5.437,2.608,8.327-1.086,12.694-.548.646-19.812,1.978-21.369-1.409-.579-1.25.979-5.683.861-7.057-.625-7.231-1.22-14.718,1.179-21.564a10.911,10.911,0,0,1,2.388-4.192C378.766,176.414,387.026,176.609,390.434,183.763Z" transform="translate(-186.467 -120.936)" fill="#24b8fe"/>
    <path id="Path_36" data-name="Path 36" d="M390.434,183.763a16.378,16.378,0,0,1,1.174,6.4c.215,4.376,1.63,9.142-.2,13.124-2.5,5.437,2.608,8.327-1.086,12.694-.548.646-19.812,1.978-21.369-1.409-.579-1.25.979-5.683.861-7.057-.625-7.231-1.22-14.718,1.179-21.564a10.911,10.911,0,0,1,2.388-4.192C378.766,176.414,387.026,176.609,390.434,183.763Z" transform="translate(-186.467 -120.936)" fill="url(#linear-gradient-10)"/>
    <path id="Path_37" data-name="Path 37" d="M374.446,156.577a10.357,10.357,0,0,0,0,3.28,3.828,3.828,0,0,0,1.778,2.644,9.819,9.819,0,0,0,1.952.61,1.025,1.025,0,0,1,.512.256.886.886,0,0,1,.195.4,8.83,8.83,0,0,1,.082,2.178,2.326,2.326,0,0,0,.81,1.942,1.809,1.809,0,0,0,1.614.118,3.849,3.849,0,0,0,1.363-.963,4.854,4.854,0,0,0,.682-.835,5.663,5.663,0,0,0,.62-3.111c0-1.425-.144-2.849-.154-4.274,0-2.521,1.2-4.023,1.122-6.539a11.261,11.261,0,0,0-1.122-2.306,3.469,3.469,0,0,0-.723-.876,3.588,3.588,0,0,0-.963-.728,3.126,3.126,0,0,0-1.712-.1,15.235,15.235,0,0,0-3.551.989,3.7,3.7,0,0,0-1.2.728,1.573,1.573,0,0,0-.441,1.256,10.416,10.416,0,0,1-.287,1.706Q374.666,154.757,374.446,156.577Z" transform="translate(-189.148 -106.387)" fill="url(#linear-gradient-11)"/>
    <path id="Path_38" data-name="Path 38" d="M372.321,140.376a7.687,7.687,0,0,0-2.3,4.689,4.55,4.55,0,0,0,.077,1.706,1.886,1.886,0,0,0,.671,1.061,2.05,2.05,0,0,0,1.307.3,2.4,2.4,0,0,0,1.384-.436,1.276,1.276,0,0,0,.512-1.3l.133,1.281a.415.415,0,0,0,.077.246.451.451,0,0,0,.364.092l2.813-.154a.651.651,0,0,0,.743-.512l.512-1.353a2.685,2.685,0,0,0,.415,1.512,1.358,1.358,0,0,0,1.732.287c-.026,3.587-.077,7.3-1.619,10.536a2.6,2.6,0,0,0,2.188.963,3.182,3.182,0,0,0,1.712-.389,1.691,1.691,0,0,0,.861-1.455l-.061.9a.333.333,0,0,0,.051.246.338.338,0,0,0,.267.061l2.87-.2a.692.692,0,0,0,.738-.512,26.481,26.481,0,0,0,1.978-4.668,22.046,22.046,0,0,0,.42-8.056,8.962,8.962,0,0,0-.441-2.3c-.825-2.188-3.167-3.464-5.463-3.89s-4.581-.108-6.872-.313A6.3,6.3,0,0,0,372.321,140.376Z" transform="translate(-187.033 -101.743)" fill="#606161"/>
    <path id="Path_39" data-name="Path 39" d="M372.321,140.376a7.687,7.687,0,0,0-2.3,4.689,4.55,4.55,0,0,0,.077,1.706,1.886,1.886,0,0,0,.671,1.061,2.05,2.05,0,0,0,1.307.3,2.4,2.4,0,0,0,1.384-.436,1.276,1.276,0,0,0,.512-1.3l.133,1.281a.415.415,0,0,0,.077.246.451.451,0,0,0,.364.092l2.813-.154a.651.651,0,0,0,.743-.512l.512-1.353a2.685,2.685,0,0,0,.415,1.512,1.358,1.358,0,0,0,1.732.287c-.026,3.587-.077,7.3-1.619,10.536a2.6,2.6,0,0,0,2.188.963,3.182,3.182,0,0,0,1.712-.389,1.691,1.691,0,0,0,.861-1.455l-.061.9a.333.333,0,0,0,.051.246.338.338,0,0,0,.267.061l2.87-.2a.692.692,0,0,0,.738-.512,26.481,26.481,0,0,0,1.978-4.668,22.046,22.046,0,0,0,.42-8.056,8.962,8.962,0,0,0-.441-2.3c-.825-2.188-3.167-3.464-5.463-3.89s-4.581-.108-6.872-.313A6.3,6.3,0,0,0,372.321,140.376Z" transform="translate(-187.033 -101.743)" fill="url(#linear-gradient-12)"/>
    <path id="Path_40" data-name="Path 40" d="M340.986,150.348l-17.808,2.532-5.688-24.8L335.3,125.55Z" transform="translate(-154.786 -61.222)" fill="#fff"/>
    <path id="Path_41" data-name="Path 41" d="M399.6,207.775a2.562,2.562,0,0,1-2.767,3.167,28.969,28.969,0,0,1-17.275-3.474,2.8,2.8,0,0,1-1.056-.861,2.762,2.762,0,0,1-.323-1.379,22.219,22.219,0,0,1,.067-2.921,1.486,1.486,0,0,1,.466-1.153,1.507,1.507,0,0,1,.963-.164l8.076.4a1.1,1.1,0,0,0,.779-.154,1.025,1.025,0,0,0,.3-.682c.436-2.6,0-5.278.256-7.907.2-1.906,1.086-5.125,3.28-5.637,2.562-.6,3.387,2.624,4.043,4.412a51.973,51.973,0,0,1,3.187,16.352Z" transform="translate(-191.022 -125.275)" fill="#24b8fe"/>
    <path id="Path_42" data-name="Path 42" d="M365.545,212.74a5.428,5.428,0,0,0-1.025-.379,5.221,5.221,0,0,0-.979-.082h-2.1a8.2,8.2,0,0,0-1.845.179.8.8,0,0,0-.461.251.748.748,0,0,0-.123.42,2.762,2.762,0,0,0,1.419,2.562,1.091,1.091,0,0,1,.512.41c.056.113.056.251.108.369a.933.933,0,0,0,.512.415,10.121,10.121,0,0,0,3.5.881,1.209,1.209,0,0,1,.487.092,3.073,3.073,0,0,1,.313.215,1.793,1.793,0,0,0,1.491.118,10.148,10.148,0,0,1,1.481-.425c.42-.051.933-.036,1.143-.395a1.025,1.025,0,0,0,.056-.7,11.275,11.275,0,0,0-.261-1.763c-.133-.425-.482-.512-.876-.671l-1.7-.764A7.221,7.221,0,0,1,365.545,212.74Z" transform="translate(-181.687 -137.63)" fill="url(#linear-gradient-13)"/>
    <path id="Path_43" data-name="Path 43" d="M91.2,269.105a34,34,0,0,0-1.6-13.913c-.866-2.562-2.05-5.053-2.813-7.687a13.884,13.884,0,0,1-.292-8.035,33.576,33.576,0,0,1,2.778-7.149,32.318,32.318,0,0,1,5.166-7.251,28.308,28.308,0,0,0-4.13,21.523c.436,2,1.086,3.946,1.583,5.934a61.551,61.551,0,0,1,1.537,14.149,4.289,4.289,0,0,1-.553,2.634C92.316,270.048,91.747,269.859,91.2,269.105Z" transform="translate(-48.589 -143.867)" fill="#24b8fe"/>
    <path id="Path_44" data-name="Path 44" d="M86.59,229.8s8.358,7.651,7.9,18.243-1.676,23.061-1.368,23.573,5.253.543,5.253.543a235.406,235.406,0,0,1-.354-23.891C98.479,234.981,86.59,229.8,86.59,229.8Z" transform="translate(-48.869 -146.173)" fill="#24b8fe"/>
    <path id="Path_45" data-name="Path 45" d="M86.59,229.8s8.358,7.651,7.9,18.243-1.676,23.061-1.368,23.573,5.253.543,5.253.543a235.406,235.406,0,0,1-.354-23.891C98.479,234.981,86.59,229.8,86.59,229.8Z" transform="translate(-48.869 -146.173)" fill="url(#linear-gradient-14)"/>
    <path id="Path_46" data-name="Path 46" d="M121.195,231.57s-9.89,7.687-12.166,20.319-3.449,21.185-3.449,21.185l5.637-.236s.077-20.4,4.474-29.661S121.195,231.57,121.195,231.57Z" transform="translate(-58.128 -147.036)" fill="#24b8fe"/>
    <path id="Path_47" data-name="Path 47" d="M121.195,231.57s-9.89,7.687-12.166,20.319-3.449,21.185-3.449,21.185l5.637-.236s.077-20.4,4.474-29.661S121.195,231.57,121.195,231.57Z" transform="translate(-58.128 -147.036)" fill="url(#linear-gradient-15)"/>
    <path id="Path_48" data-name="Path 48" d="M110.27,217s3.587,13.262,1.338,19.853-3.075,29.3-3.075,29.3l-2.982-.195s.272-24.05,1.332-27.58S111.172,226.111,110.27,217Z" transform="translate(-58.113 -139.932)" fill="#24b8fe"/>
    <path id="Path_49" data-name="Path 49" d="M110.27,217s3.587,13.262,1.338,19.853-3.075,29.3-3.075,29.3l-2.982-.195s.272-24.05,1.332-27.58S111.172,226.111,110.27,217Z" transform="translate(-58.113 -139.932)" fill="url(#linear-gradient-16)"/>
    <path id="Path_50" data-name="Path 50" d="M67.91,253.848s14.349-2.275,18.049,7.374,0,22.5,0,22.5L84,283.237s1.84-20.406-9.224-26.053Z" transform="translate(-39.762 -157.783)" fill="#24b8fe"/>
    <path id="Path_51" data-name="Path 51" d="M67.91,253.848s14.349-2.275,18.049,7.374,0,22.5,0,22.5L84,283.237s1.84-20.406-9.224-26.053Z" transform="translate(-39.762 -157.783)" fill="url(#linear-gradient-17)"/>
    <path id="Path_52" data-name="Path 52" d="M91.2,269.105a34,34,0,0,0-1.6-13.913c-.866-2.562-2.05-5.053-2.813-7.687a13.884,13.884,0,0,1-.292-8.035,33.576,33.576,0,0,1,2.778-7.149,32.318,32.318,0,0,1,5.166-7.251,28.308,28.308,0,0,0-4.13,21.523c.436,2,1.086,3.946,1.583,5.934a61.551,61.551,0,0,1,1.537,14.149,4.289,4.289,0,0,1-.553,2.634C92.316,270.048,91.747,269.859,91.2,269.105Z" transform="translate(-48.589 -143.867)" fill="url(#linear-gradient-18)"/>
    <path id="Path_53" data-name="Path 53" d="M76.2,242.75H95.033l-3.767,29.19H79.654Z" transform="translate(-37.147 -118.362)" fill="#24b8fe"/>
    <path id="Path_54" data-name="Path 54" d="M76.2,242.75H95.033l-3.767,29.19H79.654Z" transform="translate(-37.147 -118.362)" fill="url(#linear-gradient-19)"/>
  </g>
</svg>
